<svg width="1024" height="1024" viewBox="0 0 1024 1024" fill="none" xmlns="http://www.w3.org/2000/svg">
<g clip-path="url(#clip0_2039_422)">
<path d="M514.295 368.041C514.316 376.543 519.05 382.136 524.757 387.751C511.751 401.263 495.337 411.475 476.961 415.76C470.922 417.168 464.059 417.631 458.33 419.921C457.885 420.494 457.583 420.613 457.645 421.399C458.086 426.988 472.126 440.189 476.759 444.083C473.418 463.021 469.559 489.034 478.299 506.672C482.54 515.232 488.513 518.46 497.176 521.383C498.592 533.631 498.226 545.399 496.597 557.575C492.343 553.915 488.396 549.916 484.129 546.256C483.013 546.967 481.966 547.718 480.961 548.582C468.242 559.525 466.436 572.124 465.337 587.858C452.962 596.477 441.271 606.016 429.477 615.404C406.244 633.897 383.196 652.978 359.17 670.424C354.275 662.195 351.082 651.721 347.522 642.821L321.583 576.692C319.604 571.59 317.559 566.498 315.703 561.349C314.25 557.32 313.081 552.977 311.21 549.134C310.607 547.895 310.116 547.715 308.854 547.267C306.727 547.458 305.125 548.415 303.282 549.397C302.279 545.69 301.264 541.997 300.47 538.239C303.056 531.817 306.173 524.906 306.012 517.833C305.906 513.203 304.66 510.872 301.36 507.749L303.619 493.735C322.899 498.72 353.646 499.342 372.829 494.974C376.268 495.978 379.476 497.665 382.891 498.745C385.077 499.437 387.044 500.047 389.183 498.944C391.377 495.786 393.809 488.589 393.875 484.661C389.19 480.767 343.247 464.259 334.192 461.192L334.742 460.713C335.831 461.059 336.363 461.075 337.478 460.829C338.421 460.008 339.078 459.303 339.545 458.12C340.932 454.611 339.276 448.399 337.712 445.08C334.599 438.474 328.543 433.84 321.78 431.401C314.059 428.616 305.713 428.894 298.294 432.474C292.356 435.34 288.203 439.589 285.961 445.802C281.069 445.89 272.609 442.312 267.608 440.741L268.219 440.189C269.77 440.415 270.205 440.554 271.704 439.968C273.234 437.903 273.727 435.162 273.309 432.631C272.535 427.938 268.582 423.861 264.755 421.357C264.429 421.14 264.098 420.931 263.762 420.731C263.426 420.531 263.085 420.339 262.739 420.156C262.393 419.972 262.043 419.798 261.688 419.633C261.333 419.467 260.974 419.311 260.612 419.164C260.249 419.016 259.883 418.878 259.513 418.75C259.144 418.62 258.771 418.501 258.395 418.391C258.02 418.281 257.642 418.18 257.261 418.09C256.88 417.998 256.498 417.917 256.113 417.845C255.728 417.773 255.342 417.711 254.954 417.659C254.566 417.607 254.177 417.564 253.787 417.532C253.397 417.499 253.006 417.476 252.615 417.463C252.224 417.45 251.832 417.447 251.441 417.454C251.05 417.46 250.659 417.477 250.269 417.504C249.878 417.53 249.489 417.566 249.1 417.613C248.711 417.659 248.324 417.714 247.938 417.78C247.552 417.846 247.168 417.921 246.786 418.006C242.209 419.071 237.731 421.8 235.437 426.019C234.479 427.781 233.89 429.923 233.34 431.842C228.95 430.822 223.037 430.197 219.035 428.276C220.38 428.088 220.666 428.14 221.663 427.253C222.92 423.032 220.813 417.379 218.771 413.653C214.973 406.723 208.095 401.824 200.555 399.711C192.947 397.579 184.543 398.321 177.629 402.25C171.837 405.541 167.875 410.647 166.25 417.097C166.111 417.643 165.979 418.19 165.852 418.74C157.804 417.733 125.742 413.212 119.447 415.959C116.766 419.467 116.008 425.789 115 430.108C121.98 434.926 130.826 436.023 138.23 439.915C141.654 441.714 142.866 445.723 146.018 447.677C153 452.003 161.703 454.075 169.166 457.672C167.977 460.636 167.131 463.025 168.484 466.091C171.216 472.282 181.169 479.945 186.261 484.688C204.734 501.901 220.928 516.294 240.979 531.751C246.282 535.84 251.49 540.298 257.059 544.008C259.377 550.181 260.912 556.652 262.675 563.001C259.531 563.342 256.039 563.306 253.26 564.918C252.53 566.045 252.238 566.651 252.522 568.024C252.924 569.975 254.349 572.092 255.323 573.828C252.424 576.606 249.844 579.283 247.75 582.743C251.513 592.928 254.677 603.295 258.205 613.559C270.66 649.795 282.579 686.299 296.219 722.107C303.845 742.125 314.5 764.5 323.578 782.483C325.266 783.532 326.539 783.988 328.532 783.578C330.119 783.251 376.033 750.667 377.5 750C424.5 712 362.795 801.156 362.795 930.285C362.651 933.233 362.594 936.214 362.346 939.154C361.56 967.446 361.268 995.743 361.471 1024.05H367.014H564.107H570.43H669.327H674.074C665.999 995.227 657.456 966.678 645.579 939.161C643.954 936.286 642.789 933.176 641.531 930.128C634.481 913.09 625.07 897.073 615.365 881.436C613.177 877.91 605.849 869.92 605.248 866.451C604.765 863.665 605.309 863.57 607.766 862.614C615.724 859.518 624.423 857.584 632.593 855.028C645.696 850.929 706.732 831.602 712.588 823.337C713.007 820.745 712.767 818.699 712.058 816.171C710.632 811.092 708.16 806.037 706.159 801.156C701.576 790.088 696.877 779.07 692.06 768.103C672.963 724.385 652.922 681.105 631.937 638.262C622.015 618.2 611.789 598.104 600.786 578.614C600.874 578.52 600.967 578.429 601.052 578.332C602.869 576.266 603.854 574.006 603.527 571.194C603.285 569.108 601.955 567.468 600.295 566.274C595.977 563.169 590.52 563.172 585.485 563.895C583.488 558.937 579.487 545.8 575.345 543.074C575.192 542.973 575.037 542.876 574.884 542.778C573.797 539.865 574.514 534.535 574.541 531.351C596.745 526.632 620.913 516.589 637.764 500.957C652.925 486.892 660.848 471.73 661.554 450.89C662.532 422.026 649.251 394.386 629.675 373.728C609.626 352.571 585.807 341.626 556.649 341.022C544.449 340.769 530.856 342.645 521.754 351.555C517.242 355.971 514.279 361.631 514.295 368.041Z" fill="#2A0704"/>
<path d="M363.539 939.109L283.365 938.962C264.885 938.951 245.755 939.989 227.388 938.07C192.296 934.403 157.12 917.366 132.317 892.401C130.912 890.989 129.535 889.551 128.184 888.087C126.834 886.624 125.511 885.135 124.216 883.622C122.921 882.109 121.655 880.572 120.418 879.011C119.181 877.45 117.973 875.867 116.795 874.261C115.617 872.656 114.47 871.028 113.353 869.379C112.236 867.73 111.15 866.061 110.096 864.372C109.041 862.683 108.019 860.974 107.028 859.246C106.037 857.518 105.08 855.772 104.155 854.009C103.23 852.245 102.338 850.465 101.479 848.668C100.62 846.871 99.7958 845.058 99.0055 843.23C98.215 841.402 97.4589 839.56 96.7373 837.704C96.0158 835.847 95.3292 833.978 94.6776 832.096C94.0261 830.214 93.41 828.321 92.8293 826.416C92.2487 824.511 91.7039 822.595 91.195 820.67C90.6861 818.745 90.2134 816.81 89.7769 814.867C89.3405 812.924 88.9405 810.973 88.5771 809.015C84.5314 787.974 86.0069 766.306 85.8111 744.99C85.4592 706.713 85.3823 668.437 85.5805 630.161L85.1926 244.265C85.1976 242.956 85.2189 241.648 85.2564 240.34C85.294 239.031 85.3478 237.724 85.4178 236.417C85.488 235.11 85.5743 233.804 85.6768 232.499C85.7794 231.194 85.8982 229.891 86.0332 228.589C86.1682 227.288 86.3194 225.988 86.4868 224.69C86.6542 223.392 86.8376 222.096 87.0372 220.802C87.2369 219.509 87.4526 218.218 87.6842 216.93C87.916 215.642 88.1638 214.357 88.4274 213.075C88.6912 211.793 88.9708 210.515 89.2663 209.24C89.5619 207.965 89.8732 206.693 90.2003 205.426C90.5275 204.159 90.8703 202.896 91.2289 201.637C91.5875 200.378 91.9617 199.124 92.3515 197.875C92.7413 196.626 93.1466 195.381 93.5673 194.142C93.9881 192.903 94.4243 191.669 94.8757 190.441C95.3272 189.212 95.7939 187.99 96.2757 186.773C96.7577 185.556 97.2546 184.346 97.7666 183.141C98.2786 181.936 98.8056 180.738 99.3474 179.547C99.8891 178.356 100.446 177.171 101.017 175.994C101.588 174.817 102.174 173.646 102.775 172.483C103.375 171.32 103.99 170.165 104.619 169.017C105.248 167.87 105.892 166.73 106.549 165.599C107.207 164.467 107.879 163.344 108.564 162.229C109.249 161.114 109.949 160.007 110.662 158.91C111.375 157.813 112.101 156.724 112.841 155.645C113.582 154.566 114.335 153.496 115.102 152.435C115.869 151.374 116.648 150.323 117.441 149.282C118.234 148.241 119.039 147.209 119.858 146.188C120.677 145.167 121.508 144.156 122.352 143.155C123.195 142.155 124.051 141.165 124.92 140.186C125.788 139.207 126.668 138.238 127.561 137.281C128.454 136.324 129.358 135.378 130.274 134.443C131.19 133.508 132.117 132.585 133.056 131.673C134.499 130.267 135.968 128.888 137.463 127.537C138.958 126.186 140.477 124.862 142.02 123.566C143.563 122.271 145.13 121.004 146.72 119.767C148.31 118.529 149.922 117.321 151.557 116.143C153.192 114.965 154.848 113.818 156.525 112.701C158.202 111.584 159.899 110.499 161.616 109.444C163.333 108.39 165.069 107.368 166.824 106.378C168.579 105.387 170.352 104.43 172.142 103.505C173.932 102.58 175.739 101.689 177.562 100.831C179.385 99.9732 181.224 99.1493 183.077 98.3593C184.931 97.5691 186.799 96.8135 188.68 96.0925C190.561 95.3713 192.456 94.6852 194.363 94.034C196.27 93.3828 198.188 92.7671 200.117 92.1868C202.047 91.6064 203.987 91.0619 205.936 90.5532C207.886 90.0444 209.844 89.5719 211.811 89.1355C213.778 88.6991 215.753 88.2991 217.735 87.9357C232.822 85.1134 247.725 85.4636 262.976 85.5121L302.231 85.6345L430.44 85.7249L683.783 85.7353C716.095 85.705 748.449 85.1746 780.755 85.5497C782.061 85.5537 783.367 85.5738 784.673 85.6102C785.978 85.6464 787.283 85.6988 788.588 85.7674C789.892 85.8359 791.195 85.9205 792.497 86.0213C793.8 86.122 795.101 86.2388 796.4 86.3717C797.699 86.5045 798.997 86.6534 800.292 86.8184C801.588 86.9833 802.882 87.1642 804.173 87.3612C805.464 87.558 806.752 87.7708 808.038 87.9996C809.324 88.2283 810.607 88.4729 811.887 88.7334C813.167 88.9938 814.444 89.27 815.717 89.562C816.99 89.8539 818.259 90.1615 819.524 90.4849C820.79 90.8082 822.051 91.1471 823.308 91.5017C824.565 91.8562 825.818 92.2262 827.066 92.6116C828.314 92.997 829.557 93.3979 830.795 93.8141C832.033 94.2302 833.266 94.6616 834.493 95.1083C835.72 95.5549 836.942 96.0166 838.158 96.4934C839.374 96.9702 840.584 97.4619 841.788 97.9687C842.992 98.4753 844.189 98.9968 845.38 99.5332C846.571 100.07 847.756 100.621 848.933 101.186C850.11 101.751 851.28 102.331 852.443 102.926C853.606 103.521 854.762 104.129 855.91 104.752C857.057 105.375 858.197 106.012 859.33 106.663C860.462 107.314 861.586 107.98 862.702 108.659C863.818 109.338 864.925 110.03 866.024 110.737C867.123 111.443 868.212 112.163 869.293 112.896C870.374 113.629 871.445 114.376 872.508 115.135C873.571 115.895 874.624 116.668 875.667 117.454C876.71 118.239 877.744 119.038 878.767 119.849C879.79 120.66 880.804 121.484 881.807 122.321C882.81 123.157 883.803 124.005 884.786 124.866C885.768 125.727 886.739 126.6 887.7 127.485C888.661 128.37 889.61 129.266 890.549 130.175C891.488 131.083 892.415 132.003 893.331 132.934C894.68 134.323 896.004 135.736 897.303 137.173C898.602 138.61 899.874 140.069 901.121 141.551C902.368 143.033 903.588 144.537 904.781 146.062C905.974 147.587 907.14 149.134 908.278 150.701C909.417 152.268 910.527 153.854 911.608 155.461C912.689 157.068 913.742 158.693 914.766 160.337C915.79 161.981 916.784 163.643 917.748 165.322C918.713 167.001 919.647 168.697 920.551 170.41C921.455 172.123 922.328 173.852 923.171 175.595C924.014 177.339 924.825 179.097 925.605 180.87C926.385 182.643 927.133 184.429 927.849 186.228C928.565 188.027 929.249 189.839 929.901 191.663C930.553 193.487 931.172 195.322 931.758 197.167C932.345 199.013 932.898 200.869 933.418 202.734C933.938 204.6 934.425 206.474 934.879 208.357C935.332 210.24 935.752 212.13 936.138 214.028C940.78 237.84 939.02 263.652 938.997 287.817L938.892 393.111L938.685 654.751C938.64 696.516 939.396 738.403 938.719 780.152C938.705 781.495 938.675 782.839 938.628 784.182C938.581 785.525 938.517 786.867 938.436 788.208C938.356 789.549 938.259 790.889 938.145 792.228C938.031 793.567 937.901 794.904 937.754 796.24C937.607 797.575 937.443 798.909 937.263 800.241C937.083 801.572 936.886 802.901 936.673 804.228C936.46 805.555 936.23 806.878 935.984 808.199C935.738 809.52 935.476 810.838 935.197 812.152C934.918 813.467 934.623 814.778 934.312 816.085C934.001 817.392 933.673 818.695 933.329 819.994C932.986 821.293 932.626 822.587 932.25 823.877C931.874 825.167 931.482 826.452 931.074 827.733C930.666 829.013 930.242 830.288 929.803 831.558C929.364 832.828 928.909 834.092 928.438 835.35C927.967 836.609 927.48 837.861 926.978 839.108C926.476 840.354 925.959 841.594 925.426 842.828C924.893 844.061 924.345 845.288 923.782 846.508C923.219 847.727 922.64 848.94 922.047 850.146C921.453 851.351 920.845 852.549 920.222 853.74C919.599 854.93 918.961 856.112 918.308 857.287C917.655 858.462 916.988 859.628 916.307 860.786C915.625 861.944 914.929 863.093 914.219 864.234C913.509 865.375 912.785 866.506 912.047 867.629C911.308 868.752 910.556 869.865 909.79 870.969C909.024 872.073 908.245 873.167 907.452 874.252C906.659 875.337 905.852 876.411 905.032 877.476C904.213 878.541 903.38 879.595 902.534 880.639C901.688 881.683 900.829 882.716 899.957 883.739C899.086 884.762 898.202 885.773 897.305 886.774C896.408 887.775 895.498 888.764 894.577 889.742C893.656 890.72 892.722 891.686 891.777 892.641C890.832 893.596 889.875 894.539 888.906 895.47C879.068 904.921 867.707 912.595 855.771 919.135C814.847 941.558 783.848 939.176 739.309 939.063C708.514 938.985 677.551 938.335 646.772 939.116C645.147 936.241 643.982 933.131 642.724 930.083L761.409 929.974C764.265 918.693 764.852 906.201 766.578 894.663L780.12 798.043C759.843 790.974 736.825 788.23 715.544 786.112C715.535 779.741 715.561 773.371 715.624 767C778.7 769.722 827.457 785.544 882.542 815.392C882.703 784.171 882.674 752.949 882.455 721.728C874.248 721.2 865.814 719.469 857.656 718.26C844.782 716.352 831.841 714.634 819.018 712.416C818.941 704.855 818.914 697.294 818.937 689.733C827.466 687.739 836.402 686.655 845.048 685.217L901.274 675.975C910.579 674.428 920.019 673.214 929.235 671.211L929.356 643.311L929.489 363.033L929.46 286.393C929.447 264.192 930.637 241.097 926.019 219.251C925.634 217.44 925.217 215.637 924.768 213.841C924.319 212.045 923.837 210.257 923.324 208.478C922.811 206.699 922.267 204.93 921.69 203.171C921.114 201.412 920.507 199.663 919.868 197.925C919.229 196.188 918.56 194.462 917.859 192.748C917.158 191.035 916.428 189.334 915.667 187.646C914.906 185.959 914.115 184.285 913.294 182.626C912.473 180.966 911.622 179.322 910.743 177.693C909.863 176.064 908.954 174.451 908.017 172.854C907.08 171.258 906.115 169.679 905.121 168.116C904.128 166.554 903.106 165.01 902.057 163.485C901.008 161.959 899.933 160.453 898.83 158.966C897.727 157.479 896.599 156.011 895.444 154.564C894.289 153.117 893.108 151.692 891.903 150.287C890.697 148.882 889.466 147.5 888.211 146.139C886.956 144.778 885.676 143.44 884.373 142.125C864.577 122.302 840.15 107.133 812.957 99.9981C788.542 93.5922 764.455 94.5411 739.484 94.5954L682.076 94.6391L496.534 94.5651L338.832 94.5336L281.782 94.4824C258.019 94.4709 235.603 93.9551 212.399 100.023C185.019 107.184 159.183 122.538 139.225 142.477C137.922 143.78 136.644 145.107 135.39 146.456C134.136 147.806 132.907 149.178 131.702 150.572C130.497 151.966 129.318 153.382 128.165 154.819C127.012 156.256 125.885 157.713 124.784 159.191C123.684 160.668 122.611 162.165 121.564 163.682C120.518 165.199 119.5 166.734 118.509 168.287C117.518 169.841 116.556 171.412 115.622 173C114.689 174.589 113.784 176.194 112.909 177.815C112.033 179.436 111.187 181.072 110.371 182.724C109.554 184.376 108.768 186.042 108.013 187.722C107.257 189.402 106.532 191.095 105.837 192.802C105.142 194.509 104.479 196.227 103.847 197.958C103.214 199.689 102.613 201.43 102.044 203.182C101.475 204.935 100.937 206.697 100.432 208.469C99.9269 210.24 99.4539 212.021 99.013 213.81C98.5722 215.599 98.1639 217.395 97.7881 219.199C93.6063 239.576 94.9697 261.313 95.031 282.037L95.1895 360.964L95.0554 686.678C123.877 692.97 153.033 697.983 182.004 703.539L212.736 709.437C218.743 710.594 224.846 712.132 230.947 712.624L231.065 731.472C212.087 733.219 193.366 735.984 174.558 738.99L174.494 795.475C174.479 807.483 174.691 819.541 174.182 831.539C214.002 810.332 247.01 796.457 291.456 787.391C302.189 785.201 313.821 782.835 324.771 782.438C326.459 783.487 327.732 783.943 329.725 783.533C331.312 783.206 332.805 782.48 334.272 781.813L334.41 801.007C315.765 801.777 291.032 808.149 272.759 812.858C276.478 829.231 278.437 846.11 281.134 862.685C284.778 885.075 288.961 907.658 291.824 930.149L282.756 930.302C280.02 921.7 278.981 911.851 277.372 902.933C274.765 889.006 272.315 875.052 270.02 861.07C267.689 846.339 265.797 831.01 262.066 816.583C250.656 820.598 205.392 839.992 198.044 847.406L198.326 847.818C218.695 836.125 239.471 826.077 261.359 817.521C267.361 844.826 271.09 872.864 276 900.411C277.678 909.826 278.76 919.993 281.297 929.167L281.837 930.469C284.047 931.313 290.048 931.612 292.348 930.823C292.569 930.747 292.766 930.614 292.974 930.509C299.68 929.454 307.177 930.075 313.974 930.105C330.55 930.179 347.441 930.975 363.988 930.24C363.844 933.188 363.787 936.169 363.539 939.109Z" fill="#494949"/>
<path d="M927.839 684.744L928.255 684.715C929.487 686.329 929.03 703.864 929.07 707.234C922.276 705.531 915.149 704.586 908.24 703.411L872.535 697.336L859.89 695.513C882.588 692.214 905.178 688.275 927.839 684.744Z" fill="#F2EEE6"/>
<path d="M99.6013 751.696C99.9659 751.793 99.9447 751.73 100.205 752.104C100.639 752.726 100.664 753.175 100.771 753.899C102.1 762.846 118.245 856.506 118.002 857.707L117.148 856.765C115.548 854.205 114.095 851.545 112.669 848.884C97.8378 821.209 95.0768 799.205 95.519 768.298C95.5917 763.215 94.4421 757.938 95.9396 753.002C97.2028 751.741 97.8681 751.917 99.6013 751.696Z" fill="#F2EEE6"/>
<path d="M95.0921 699.874C113.015 702.764 130.817 706.69 148.688 709.912C156.46 711.312 177.012 713.916 183.36 716.628C178.693 717.001 174.035 717.475 169.388 718.049C158.518 719.602 147.671 720.916 136.852 722.846C122.957 725.324 109.226 728.56 95.4819 731.75C95.2018 721.126 95.0719 710.501 95.0921 699.874Z" fill="#F2EEE6"/>
<path d="M900.309 724.41C910.021 725.406 919.809 727.424 929.451 728.996C929.399 776.648 933.35 802.045 911.016 847.251C907.568 853.81 903.68 859.956 899.539 866.087C899.088 818.848 900.267 771.636 900.309 724.41Z" fill="#F2EEE6"/>
<path d="M156.439 742.293C156.585 742.453 156.807 742.568 156.878 742.773C157.522 744.634 156.851 766.726 156.857 770.676C156.924 813.721 156.461 856.819 156.983 899.856C149.069 893 141.527 885.963 134.179 878.505C132.953 877.289 132.484 876.168 132.11 874.509C129.124 861.272 127.681 846.057 125.715 832.489C121.725 804.959 117.801 777.279 112.886 749.904C127.334 747.071 141.819 744.101 156.439 742.293Z" fill="#F2EEE6"/>
<path d="M198.326 847.817C218.695 836.124 239.471 826.076 261.359 817.52C267.361 844.825 271.09 872.862 276 900.409C277.678 909.824 278.76 919.992 281.297 929.166L280.807 929.794C275.256 930.966 266.718 930.057 260.825 930.057C226.41 930.062 205.478 927.871 174.563 911.427C174.148 895.447 174.391 879.396 174.54 863.411C182.343 858.056 190.684 853.379 198.326 847.817Z" fill="#F2EEE6"/>
<path d="M795.04 802.209C823.465 812.659 858.938 828.551 883.505 846.01C883.672 859.073 883.649 872.135 883.436 885.198C872.838 896.247 859.323 905.08 845.851 912.181C823.831 924.45 799.192 929.529 774.189 930.117C780.67 887.405 787.62 844.769 795.04 802.209Z" fill="#F2EEE6"/>
<path d="M256.842 131.218C268.535 130.862 280.329 131.105 292.032 131.101L361.079 131.171L559.858 131.114L690.713 131.093L732.361 131.111C740.154 131.119 748.211 130.742 755.977 131.358C760.462 131.714 763.783 133.089 767.123 136.115C772.399 140.896 774.622 147.376 774.93 154.345C775.441 165.888 774.97 177.624 774.955 189.188L774.927 254.834L774.893 296.09C774.893 303.728 775.461 311.951 774.539 319.517C774.041 323.602 772.898 326.902 770.012 329.937C765.635 334.538 760.129 335.769 754.041 335.937L410.254 336.053L304.719 336.051L271.162 336.052C264.923 336.052 258.522 336.346 252.309 335.829C248.067 335.476 244.557 333.924 241.219 331.301C237.312 328.23 235.694 323.075 235.16 318.31C234.194 309.692 234.951 300.17 234.961 291.464L234.971 238.941L234.935 180.739C234.93 170.908 234.126 160.349 235.21 150.614C235.702 146.19 236.982 142.602 239.868 139.146C244.32 133.816 250.122 131.69 256.842 131.218Z" fill="#5E5E5E"/>
<path d="M408.358 209.363C410.647 212.005 411.375 215.217 411.121 218.703C410.923 221.414 409.69 223.789 407.596 225.515C402.334 229.852 391.049 230.075 384.507 229.341C384.175 229.304 383.846 229.242 383.516 229.192C385.268 228.989 386.992 228.902 388.755 228.847C389.594 222.843 389.068 216.113 389.083 210.023C389.242 210.01 389.4 210 389.559 209.985C394.189 209.557 405.022 210.572 408.358 209.363Z" fill="#5E5E5E"/>
<path d="M175.356 460.238C177.358 460.414 179.357 461.321 180.848 462.662C184.225 465.7 186.845 470.066 189.593 473.691C193.439 478.764 197.378 483.645 201.618 488.393L201.465 488.961C194 482.566 179.059 472.105 174.315 464.296C174.165 462.505 174.628 461.852 175.356 460.238Z" fill="#F2EEE6"/>
<path d="M498.456 564.007C499.962 563.827 501.475 563.671 502.99 563.851C504.969 564.087 506.45 565.346 507.543 566.94C509.487 569.776 509.733 573.706 509.136 576.997C508.491 580.557 507.15 582.64 504.244 584.735C501.711 585.036 499.413 585.095 497.291 583.496C495.254 581.963 494.347 579.479 494.159 577.009C493.805 572.381 495.488 567.526 498.456 564.007Z" fill="#814546"/>
<path d="M238.914 432.666C239.576 430.923 240.195 429.095 241.421 427.655C244.185 424.405 248.261 422.636 252.475 422.429C253.029 422.399 253.583 422.397 254.137 422.423C254.69 422.449 255.241 422.502 255.79 422.582C256.339 422.664 256.882 422.772 257.42 422.907C257.958 423.043 258.488 423.204 259.009 423.392C259.53 423.58 260.041 423.794 260.542 424.034C261.042 424.274 261.529 424.537 262.002 424.825C262.476 425.114 262.934 425.425 263.377 425.759C263.82 426.093 264.244 426.449 264.651 426.825C268.73 430.629 269.266 434.897 269.412 440.143L268.801 440.695C258.815 438.499 248.733 435.534 238.914 432.666Z" fill="#F2EEE6"/>
<path d="M187.244 460.488C190.484 460.317 192.634 460.617 195.448 462.379C198.741 464.442 201.457 467.258 203.89 470.259C209.626 477.334 224.692 501.493 226.632 510.004C219.744 501.698 189.04 468.339 187.244 460.488Z" fill="#F2EEE6"/>
<path d="M307.843 553.505C309.022 554.912 309.528 557.994 310.084 559.8C300.407 566.247 274.431 579.926 263.552 578.905C262.479 575.555 260.95 572.327 259.551 569.1C276.329 566.261 292.747 561.511 307.843 553.505Z" fill="#F2EEE6"/>
<path d="M529.391 817.964C530.035 818.405 530.246 818.687 530.52 819.425C533.598 827.696 536.251 836.136 539.29 844.427C541.372 850.103 543.81 855.621 545.998 861.254C543.091 862.488 540.079 863.498 537.107 864.567L536.189 864.51C532.329 860.728 522.186 830.006 519.97 823.015C522.99 821.02 526.114 819.492 529.391 817.964Z" fill="#F2EEE6"/>
<path d="M484.716 551.309C489.137 552.023 491.807 558.842 495.954 560.495L497.266 559.656L497.774 559.929L497.4 560.978C496.687 561.408 495.64 561.943 495.027 562.51C492.191 565.131 491.231 573.262 490.766 576.91C487.73 576.002 484.991 575.535 481.82 575.785C480.12 575.918 479.128 576.042 478.007 577.362L478.17 578.359C481.488 577.908 486.086 577.298 489.093 578.987C490.765 579.926 491.051 581.096 491.571 582.824C491.63 583.021 491.685 583.218 491.742 583.415C492.038 583.997 492.298 584.615 492.571 585.209L491.957 586.069C487.163 587.63 481.099 590.61 476.067 590.716C474.827 590.742 473.601 590.503 472.782 589.485C470.783 586.998 471.072 581.91 471.242 578.847C471.85 567.906 476.549 558.51 484.716 551.309Z" fill="#814546"/>
<path d="M290.839 446.812C295.917 440.378 301.142 435.918 309.631 434.79C316.286 433.906 323.205 436.007 328.386 440.249C332.481 443.602 335.566 448.686 336.027 454.026C336.215 456.21 336.04 458.478 335.935 460.667L335.385 461.146C325.539 458.101 315.714 454.991 305.909 451.815C300.962 450.234 295.546 448.971 290.839 446.812Z" fill="#F2EEE6"/>
<path d="M190.802 403.603C197.299 402.985 204.598 405.223 209.682 409.229C215.893 414.122 217.494 420.463 218.345 427.904L204.391 425.037C193.606 422.875 182.705 421.273 171.896 419.213C172.642 416.915 173.383 414.68 174.744 412.655C178.586 406.94 184.348 404.849 190.802 403.603Z" fill="#F2EEE6"/>
<path d="M528.83 865.011L529.504 865.028C530.51 866.681 531.248 868.482 532.04 870.244C536.034 868.779 543.621 864.805 547.62 866.359C550.749 867.576 551.622 871.514 552.672 874.348C540.793 879.635 529.111 884.56 516.118 886.371C506.146 887.963 495.158 887.272 485.111 886.656C500.058 880.24 514.239 872.168 528.83 865.011Z" fill="#5E5E5E"/>
<path d="M231.852 475.281C238.175 475.934 247.009 479.442 253.317 481.236C263.671 484.181 274.144 486.692 284.572 489.361L278.653 499.801C278.556 499.97 278.469 500.147 278.361 500.31C276.28 503.448 265.672 504.37 262.063 505.107C255.617 500.767 247.431 496.41 242.208 490.623C238.259 486.248 235.049 480.245 231.852 475.281Z" fill="#F2EEE6"/>
<path d="M573.234 547.961L574.174 547.996C576.605 550.49 580.565 561.937 582.195 565.793C568.079 571.056 555.72 575.858 544.347 586.176C542.43 587.765 540.715 589.701 538.962 591.472C541.892 581.209 541.749 570.028 541.332 559.451C551.66 555.045 562.638 551.687 573.234 547.961Z" fill="#F2EEE6"/>
<path d="M511.061 565.751C515.911 560.45 523.798 557.656 530.886 557.155C532.49 557.041 534.346 557.243 535.603 558.343C538.345 560.741 537.866 566.082 537.72 569.388C537.224 580.62 536.037 596.388 526.982 604.385C526.81 604.538 526.631 604.684 526.455 604.834C517.173 601.581 512.752 595.206 505.951 588.667C507.325 587.636 508.725 586.627 510.069 585.557L510.763 585.786C514.956 587.196 520.26 591.621 524.536 591.263L525.14 590.511C523.186 586.203 512.341 585.457 511.67 581.468L512.438 576.878C512.48 573.056 511.814 569.483 511.061 565.751Z" fill="#814546"/>
<path d="M512.438 576.878C516.021 575.723 522.122 573.284 525.789 574.737C522.988 578.354 515.423 578.385 511.67 581.468L512.438 576.878Z" fill="#401617"/>
<path d="M125.226 420.215C144.151 419.417 164.426 423.202 183.013 426.542C253.731 439.249 322.542 460.898 389.344 487.134C388.805 489.337 388.425 491.685 387.266 493.655L386.357 493.734C373.465 488.2 360.448 482.976 347.306 478.063C334.164 473.151 320.912 468.555 307.55 464.276C294.189 459.997 280.732 456.04 267.181 452.404C253.63 448.768 240 445.458 226.291 442.474C191.838 434.87 157.261 429.187 121.942 428.13C122.308 426.179 122.567 424 123.289 422.152C123.807 420.826 124.001 420.76 125.226 420.215Z" fill="#F2EEE6"/>
<path d="M210.977 467.603C211.448 467.559 211.919 467.512 212.392 467.488C225.023 466.829 232.26 488.876 240.953 496.613C248.641 503.455 257.851 509.057 266.195 515.126C269.84 517.776 273.893 521.615 277.826 523.706C278.903 524.278 279.406 524.235 280.579 524.171C281.519 523.381 282.017 523.001 282.337 521.793C279.924 517.627 270.835 511.896 266.827 508.781C269.794 508.464 272.99 508.075 275.864 507.295C283.622 505.189 286.693 496.826 290.112 490.386C293.487 491.291 296.94 492.005 300.343 492.804C298.955 498.136 297.82 503.311 297.591 508.83C299.027 510.939 300.685 512.911 302.175 514.988C302.154 523.515 299.473 529.704 296.2 537.367C297.043 542.152 297.946 546.934 299.557 551.527C289.833 556.114 279.502 559.603 269.14 562.429C267.036 556.128 265.45 549.611 264.125 543.106C254.262 533.788 242.964 525.756 232.172 517.54L234.307 513.209C231.518 507.181 228.815 501.063 225.619 495.237C223.25 490.917 210.754 471.644 210.046 468.807L210.977 467.603Z" fill="#F2EEE6"/>
<path d="M140.592 434.186C207.221 440.236 273.654 457.305 336.561 479.672C343.483 482.133 360.774 487.631 366.034 491.383C365.058 492.176 363.86 491.955 362.624 492.018C317.81 494.745 275.621 481.944 233.023 469.817C230.831 469.193 228.001 468.724 225.998 467.691C222.597 465.938 220.193 462.865 216.28 461.993C212.676 461.19 209.468 462.607 206.504 464.527C203.134 461.267 199.569 458.017 195.066 456.419C190.597 454.834 187.654 455.564 183.572 457.483C173.668 451.569 161.363 448.003 150.518 444.035C147.894 439.623 144.76 436.991 140.592 434.186Z" fill="#5E5E5E"/>
<path d="M495.458 589.041C497.695 588.866 499.942 589.275 502.161 589.55C507.223 598.134 514.58 604.476 523.171 609.32C508.99 633.595 498.123 658.451 488 684.639C482.152 683.663 476.271 683.036 470.381 682.381C459.956 681.206 449.524 680.095 439.085 679.05C444.684 664.133 451.892 649.51 459.342 635.434C464.613 625.472 479.214 598.536 487.604 592.292C489.868 590.607 492.795 589.864 495.458 589.041Z" fill="#F2EEE6"/>
<path d="M465.509 647.054C466.479 647.008 467.532 646.884 468.493 647.047C469.65 647.243 471.132 648.403 471.704 649.442C472.476 650.844 472.566 652.32 472.058 653.818C471.265 656.156 469.663 657.207 467.523 658.21C466.711 658.181 465.781 658.195 464.992 658.009C463.361 657.623 461.812 656.536 461.084 654.993C460.572 653.906 460.529 652.732 460.871 651.591C461.617 649.106 463.307 648.152 465.509 647.054Z" fill="#2A0704"/>
<path d="M487.96 608.083C488.98 608.196 490.285 608.265 491.233 608.644C491.383 608.703 491.53 608.77 491.673 608.845C491.816 608.919 491.955 609 492.09 609.088C492.225 609.176 492.356 609.271 492.481 609.372C492.606 609.473 492.727 609.58 492.842 609.693C492.957 609.806 493.066 609.925 493.169 610.049C493.272 610.173 493.368 610.302 493.459 610.436C493.549 610.569 493.632 610.707 493.709 610.849C493.785 610.991 493.854 611.137 493.916 611.286C494.51 612.73 494.32 614.277 493.639 615.649C492.517 617.912 490.826 618.801 488.529 619.606C487.447 619.359 486.246 619.142 485.251 618.639C484.064 618.039 483.147 616.922 482.725 615.669C482.21 614.14 482.345 612.695 483.19 611.305C484.332 609.429 485.912 608.643 487.96 608.083Z" fill="#2A0704"/>
<path d="M454.083 805.922C460.293 806.725 466.747 809.53 472.639 811.603L499.79 821.247C504.786 823.028 510.453 825.788 515.802 825.716C518.247 837.259 523.456 848.9 527.464 860.006C513.884 866.803 493.346 879.962 478.727 882.482C475.7 881.636 472.664 879.613 469.523 879.523L468.778 880.227C468.412 881.588 468.511 882.199 468.933 883.536C470.723 885.205 473.401 885.865 475.669 886.702C472.684 888.049 469.685 888.976 466.542 889.881C464.81 890.348 463.054 890.688 461.273 890.901C456.954 891.429 451.409 890.31 448.002 887.494C443.311 883.617 445.011 879.209 444.557 874.012C443.183 873.173 441.445 875.47 439.213 874.565C432.637 871.899 439.811 858.821 437.505 854.763C437.37 854.776 437.232 854.768 437.1 854.8C435.067 855.289 433.08 858.557 431.875 860.19C431.157 859.756 430.45 859.304 429.755 858.835C427.424 857.236 425.206 855.115 424.737 852.207C423.726 845.932 432.558 838.671 435.734 833.812C436.411 832.776 436.711 832.264 436.417 831.023C435.563 830.613 435.534 830.504 434.508 830.571C430.483 830.835 426.651 836.833 424.295 839.727C421.228 838.529 415.539 837.044 413.564 834.304C413.542 833.723 413.5 833.662 413.69 833.021C415.657 826.359 446.817 809.87 454.083 805.922Z" fill="#F2EEE6"/>
<path d="M571.623 1024C588.024 982.814 599.067 946.602 604.685 902.472C605.737 894.209 607.331 885.633 607.564 877.322C613.321 884.74 617.806 893.347 622.28 901.576C627.439 911.282 632.32 921.126 636.922 931.108C641.524 941.09 645.84 951.195 649.87 961.421C653.899 971.648 657.636 981.98 661.081 992.418C664.526 1002.86 667.672 1013.39 670.52 1024H571.623Z" fill="#5E5E5E"/>
<path d="M550.599 346.191C559.6 345.008 570.143 346.485 578.96 348.383C605.005 353.989 626.227 372.672 640.34 394.647C653.716 415.473 661.061 439.795 655.54 464.468C652.656 477.355 646.322 485.936 636.803 494.893C634.053 497.481 630.991 500.511 627.767 502.486C626.688 503.146 626.981 503.005 625.916 502.742C621.701 488.146 617.994 473.946 611.836 459.984C601.981 437.642 576.059 391.19 552.652 382.735C545.662 380.21 538.774 382.586 532.467 385.699C531.41 385.089 530.333 384.472 529.339 383.76C525.289 380.858 521.264 374.799 520.528 369.924C519.87 365.566 521.408 361.405 524.083 358C530.463 349.879 540.848 347.307 550.599 346.191Z" fill="#F2EEE6"/>
<path d="M546.057 386.692C546.631 386.733 547.172 386.781 547.736 386.895C563.025 389.981 580.007 414.607 588.331 427.016C581.843 433.023 575.715 440.336 570.769 447.673C567.962 451.838 565.554 456.544 562.3 460.363C561.542 461.252 560.452 462.314 559.927 463.351C559.328 464.534 559.395 464.882 559.746 466.049L560.758 466.591C563.548 466.183 566.047 464.222 568.538 462.956C572.835 460.774 577.392 459.614 582.094 461.291C586.086 462.715 589.613 466.102 591.292 469.979C593.382 474.804 592.983 480.716 591.044 485.523C587.831 493.487 580.234 497.868 571.812 497.749C569.957 497.723 567.481 496.932 565.791 497.679C565.63 497.999 565.412 498.378 565.373 498.739C565.018 502.021 568.229 501.714 569.839 503.466C571.165 504.909 570.441 539.115 570.326 543.913C559.915 547.21 549.63 550.864 539.473 554.876C537.607 553.85 535.862 552.937 533.727 552.642C524.807 551.408 515.474 556.71 508.544 561.754L508.525 561.77L504.612 560.388L502.994 559.959C502.106 557.299 503.428 551.304 503.636 548.34C504.253 539.536 504.521 530.869 504.005 522.056C506.959 522.647 510.035 523.079 513.032 523.367C519.293 523.969 539.014 523.33 543.342 519.299C544.233 518.47 544.445 518.038 544.413 516.846C541.739 514.184 524.417 518.247 519.809 518.361C514.942 518.482 509.852 517.95 505.047 517.213C497.829 516.107 490.775 514.344 486.332 508.017C474.979 491.853 479.938 461.403 483.501 442.876C477.39 436.151 470.632 430.363 464.852 423.249C479.449 419.673 489.087 418.796 503.008 411.61C518.093 403.823 528.238 388.799 546.057 386.692Z" fill="#F2EEE6"/>
<path d="M573.114 470.509C574.761 470.444 576.292 470.422 577.809 471.172C579.601 472.057 580.849 473.404 581.355 475.36C582.08 478.156 581.197 480.353 579.79 482.726C579.504 481.045 579.112 479.493 578.574 477.875C577.436 476.2 576.345 474.36 574.202 473.898C571.309 473.275 567.914 475.723 565.554 477.128C567.863 474.227 569.715 472.199 573.114 470.509Z" fill="#2A0704"/>
<path d="M538.954 394.558C543.545 394.723 547.377 395.847 550.994 398.788C551.463 399.168 551.913 399.57 552.343 399.994C552.772 400.418 553.18 400.863 553.565 401.328C553.95 401.793 554.312 402.276 554.649 402.777C554.986 403.278 555.298 403.795 555.583 404.327C555.869 404.859 556.128 405.404 556.359 405.962C556.59 406.519 556.793 407.087 556.968 407.666C557.143 408.244 557.288 408.829 557.405 409.421C557.521 410.013 557.608 410.61 557.665 411.212C558.058 415.232 557.146 418.79 554.631 421.925L552.701 421.741C548.466 418.43 551.207 410.293 548.603 405.627C546.232 401.375 540.001 400.596 537.432 396.829C537.682 395.484 537.901 395.469 538.954 394.558Z" fill="#2A0704"/>
<path d="M527.557 465.554C527.839 465.526 528.122 465.496 528.404 465.471C530.079 465.327 531.197 465.49 532.498 466.579C532.272 467.687 532.008 468.199 531.097 468.917C523.178 475.168 506.797 476.04 497.11 474.846C496.038 474.629 494.732 474.262 493.814 473.646C492.691 472.894 491.931 471.868 491.63 470.557C492.319 469.256 493.134 468.672 494.63 468.483C496.764 468.212 499.945 469.505 502.222 469.656C511.27 470.253 519.052 468.361 527.557 465.554Z" fill="#2A0704"/>
<path d="M531.35 410.528C533.082 410.529 534.701 410.717 536.263 411.531C538.744 412.823 540.323 414.836 541.045 417.531C543.005 424.845 539.268 434.779 535.432 440.971C531.897 446.677 527.553 451.009 520.83 452.531C519.287 452.509 517.562 452.218 516.158 451.557C513.667 450.383 511.784 448.398 510.923 445.77C508.97 439.814 511.403 431.834 514.078 426.394C517.794 418.838 523.282 413.275 531.35 410.528Z" fill="#2A0704"/>
<path d="M523.229 421.38C523.677 421.967 523.506 421.679 523.83 422.384C526.131 427.404 528.817 432.011 532.03 436.501C529.896 440.585 527.567 443.449 523.858 446.128C523.248 446.301 522.635 446.491 522.002 446.569C520.39 446.767 518.351 446.372 517.182 445.184C516.089 444.074 515.713 442.435 515.602 440.937C515.079 433.876 518.616 426.544 523.229 421.38Z" fill="#F2EEE6"/>
<path d="M311.358 564.481C313.836 567.192 316.24 576.723 317.785 580.618L341.758 640.894C345.491 650.106 348.791 660.026 353.425 668.777C354.927 671.613 356.749 674.387 359.406 676.249C365.784 676.191 443.18 612.24 456.442 603.224C451.112 614.846 443.948 625.346 438.064 636.678C425.496 660.88 414.384 685.329 404.257 710.627C401.138 718.114 398.605 725.883 395.91 733.532C391.728 736.427 387.302 738.996 383.071 741.827L348.079 765.705C341.262 770.417 333.962 774.861 327.893 780.515C304.053 733.142 287.934 678.63 270.685 628.479C267.723 619.868 256.89 592.224 256.538 584.903C256.77 584.686 256.952 584.397 257.235 584.253C258.465 583.627 262.39 583.678 263.88 583.494C269.305 582.823 274.717 581.906 279.985 580.427C291.018 577.329 301.734 570.598 311.358 564.481Z" fill="#5E5E5E"/>
<path d="M591.189 586.169C592.57 585.991 593.679 585.991 594.94 586.677C601.493 590.242 609.091 603.368 612.954 609.986C630.631 640.263 644.449 673.115 659.443 704.776C670.096 727.274 680.428 749.789 690.654 772.485C697.801 788.347 705.298 803.953 710.918 820.453C678.621 835.487 644.501 845.908 610.483 856.252L556.486 872.958C553.894 863.234 549.055 854.329 545.21 845.069C541.177 835.358 537.726 825.272 533.148 815.81C553.817 807.078 575.966 801.028 597.398 794.37C604.859 792.052 612.461 790.02 619.748 787.201C619.8 786.89 619.832 786.746 619.804 786.355C619.423 780.954 582.169 709.342 576.629 699.905C575.331 697.694 574.065 695.406 572.103 693.716L571.416 693.853C571.028 695.76 571.61 697.483 572.321 699.244C577.293 711.561 585.739 725.065 591.919 737.099C600.028 752.888 607.104 769.649 616.409 784.747C603.769 788.237 591.163 791.847 578.592 795.575C556.276 802.108 533.821 808.607 513.514 820.149C512.642 818.722 511.81 817.272 511.017 815.799C510.224 814.327 509.472 812.834 508.76 811.32C508.048 809.807 507.378 808.275 506.75 806.725C506.121 805.175 505.535 803.609 504.992 802.027C504.449 800.446 503.949 798.851 503.492 797.241C503.035 795.633 502.622 794.013 502.254 792.381C501.885 790.75 501.561 789.11 501.281 787.46C501.002 785.812 500.767 784.156 500.578 782.494C494.744 730.459 517.873 651.236 550.856 610.333C561.343 597.328 574.312 588.044 591.189 586.169Z" fill="#5E5E5E"/>
<path d="M479.32 593.96C462.576 615.157 447.812 644.865 437.392 669.867C436.281 672.533 432.893 679.174 433.438 681.854C433.501 682.165 433.629 682.458 433.725 682.76C438.299 684.367 485.535 690.036 490.694 689.318C492.136 688.602 493.032 686.112 493.658 684.65C496.126 678.879 498.087 672.871 500.409 667.037C507.794 648.485 516.206 628.163 527.901 611.829C530.775 607.815 534.57 604.328 537.939 600.729C550.323 587.498 555.823 581.642 573.155 574.701C578.499 572.56 591.622 566.208 597.386 568.885C598.427 569.369 599.2 569.945 599.518 571.108C599.836 572.266 599.555 573.729 598.777 574.65C597.796 575.814 596.413 576.466 594.906 576.406C592.661 576.315 590.381 575.707 588.137 575.898C578.024 576.763 566.461 584.823 559.05 591.297C527.432 618.917 512.148 665.015 502.742 704.611C498.396 722.903 494.82 741.873 493.626 760.659C492.449 779.166 493.295 800.292 502.73 816.697C486.755 811.23 470.798 805.103 454.5 800.691C444.179 804.222 413.245 821.733 408.889 831.283C408.277 832.626 408.297 834.016 408.81 835.378C410.448 839.72 416.552 841.944 420.544 843.557L421.478 843.926C420.388 846.377 419.504 848.627 418.909 851.257C420.572 858.755 424.077 861.078 430.328 865.064L431.516 865.818C431.689 870.272 432.051 874.489 435.482 877.762C436.554 878.784 437.762 879.57 439.061 880.266C440.313 885.693 442.054 890.163 447.015 893.304C453.636 897.498 462.596 896.67 469.873 894.83C474.119 893.756 478.279 892.242 482.403 890.78C502.276 895.042 521.632 892.593 540.501 885.414C545.447 883.532 550.167 881.087 555.114 879.226C559.949 877.408 565.065 876.185 569.995 874.617C577.629 872.19 585.198 869.473 592.884 867.223C579.595 879.215 566.933 891.84 553.289 903.453C534.771 919.213 514.995 933.484 495.37 947.814C486.817 954.059 452.73 976.721 448.213 984.18L448.48 983.748L449.562 984.629C460.964 979.643 471.627 970.886 481.811 963.794C518.823 938.02 554.91 911.582 587.299 880.052C576.377 905.327 555.353 937.417 538.374 958.854C533.32 965.146 528.1 971.297 522.713 977.307C518.654 981.85 505.299 994.319 503.443 999.014L503.826 999.406C508.8 998.061 513.36 993.44 517.065 990.022C540.366 968.525 561.325 939.305 577.085 911.9C582.89 901.887 588.225 891.63 593.091 881.129C594.347 878.418 598.318 867.541 599.265 866.232C599.552 865.835 600.049 865.645 600.44 865.351L601.567 865.331C602.913 867.982 601.771 874.991 601.564 878.173C599.234 913.982 591.398 950.156 580.251 984.216C575.82 997.754 570.171 1010.66 565.3 1024H368.207C367.546 1003.5 367.524 982.99 368.139 962.485C368.898 925.964 371.014 889.098 376.062 852.899C377.197 844.985 378.467 837.092 379.871 829.222C381.274 821.35 382.811 813.505 384.481 805.687C386.151 797.868 387.953 790.08 389.888 782.323C391.823 774.565 393.888 766.842 396.085 759.155C398.282 751.468 400.608 743.82 403.065 736.212C405.521 728.603 408.106 721.038 410.819 713.518C413.532 705.997 416.373 698.525 419.34 691.101C422.307 683.677 425.4 676.305 428.617 668.986C440.317 642.887 453.708 616.703 469.979 593.122C473.446 594.819 475.656 594.503 479.32 593.96Z" fill="#F2EEE6"/>
<g filter="url(#filter0_d_2039_422)">
<path d="M293.463 285V180H328.863V285H293.463ZM354.904 285V180H405.454C415.254 180 423.704 181.6 430.804 184.8C438.004 188 443.554 192.6 447.454 198.6C451.354 204.5 453.305 211.5 453.305 219.6C453.305 227.7 451.354 234.7 447.454 240.6C443.554 246.4 438.004 250.85 430.804 253.95C423.704 257.05 415.254 258.6 405.454 258.6H374.554L390.304 244.05V285H354.904ZM417.754 285L391.954 246.75H429.454L455.554 285H417.754ZM390.304 247.95L374.554 231.9H403.204C408.104 231.9 411.704 230.8 414.004 228.6C416.404 226.4 417.604 223.4 417.604 219.6C417.604 215.8 416.404 212.8 414.004 210.6C411.704 208.4 408.104 207.3 403.204 207.3H374.554L390.304 191.25V247.95ZM475.672 285V180H504.772L546.772 248.55H531.472L572.272 180H601.372L601.672 285H569.422L569.122 228.6H574.222L546.322 275.55H530.722L501.622 228.6H507.922V285H475.672ZM616.387 285L662.287 180H697.087L742.987 285H706.387L672.487 196.8H686.287L652.387 285H616.387ZM643.687 266.7L652.687 241.2H700.987L709.987 266.7H643.687Z" fill="#F2EEE6"/>
</g>
</g>
<defs>
<filter id="filter0_d_2039_422" x="293.463" y="180" width="459.524" height="113" filterUnits="userSpaceOnUse" color-interpolation-filters="sRGB">
<feFlood flood-opacity="0" result="BackgroundImageFix"/>
<feColorMatrix in="SourceAlpha" type="matrix" values="0 0 0 0 0 0 0 0 0 0 0 0 0 0 0 0 0 0 127 0" result="hardAlpha"/>
<feOffset dx="10" dy="8"/>
<feComposite in2="hardAlpha" operator="out"/>
<feColorMatrix type="matrix" values="0 0 0 0 0 0 0 0 0 0 0 0 0 0 0 0 0 0 0.25 0"/>
<feBlend mode="normal" in2="BackgroundImageFix" result="effect1_dropShadow_2039_422"/>
<feBlend mode="normal" in="SourceGraphic" in2="effect1_dropShadow_2039_422" result="shape"/>
</filter>
<clipPath id="clip0_2039_422">
<rect width="1024" height="1024" rx="250" fill="white"/>
</clipPath>
</defs>
</svg>
