<svg width="700" height="200" viewBox="0 0 700 200" fill="none" xmlns="http://www.w3.org/2000/svg">
<path d="M489 102C489 55.0558 527.056 17 574 17C620.944 17 659 55.0558 659 102C659 148.944 620.944 187 574 187C527.056 187 489 148.944 489 102Z" fill="#2A0704"/>
<path d="M541.133 151.113C542.036 151.009 542.942 150.918 543.85 151.022C545.035 151.159 545.923 151.886 546.578 152.807C547.742 154.446 547.89 156.717 547.532 158.619C547.146 160.676 546.342 161.88 544.601 163.09C543.084 163.264 541.707 163.299 540.435 162.375C539.215 161.489 538.671 160.053 538.559 158.626C538.347 155.952 539.355 153.146 541.133 151.113Z" fill="#814546"/>
<path d="M532.901 143.774C535.55 144.187 537.15 148.127 539.634 149.083L540.42 148.598L540.725 148.756L540.501 149.362C540.073 149.61 539.446 149.919 539.079 150.247C537.38 151.762 536.805 156.46 536.526 158.568C534.707 158.044 533.066 157.774 531.166 157.918C530.148 157.995 529.553 158.067 528.882 158.829L528.979 159.406C530.967 159.145 533.722 158.792 535.524 159.769C536.525 160.311 536.697 160.987 537.008 161.986C537.044 162.1 537.077 162.213 537.111 162.327C537.288 162.664 537.444 163.021 537.607 163.364L537.24 163.861C534.367 164.763 530.734 166.485 527.719 166.546C526.976 166.561 526.242 166.423 525.751 165.835C524.553 164.398 524.727 161.458 524.828 159.688C525.193 153.365 528.008 147.936 532.901 143.774Z" fill="#814546"/>
<path d="M585.935 141.84L586.499 141.86C587.955 143.301 590.328 149.916 591.304 152.144C582.847 155.186 575.442 157.961 568.628 163.923C567.48 164.841 566.452 165.96 565.402 166.983C567.157 161.053 567.072 154.592 566.822 148.48C573.01 145.934 579.587 143.993 585.935 141.84Z" fill="#F2EEE6"/>
<path d="M548.685 152.12C551.591 149.057 556.316 147.442 560.563 147.153C561.524 147.087 562.636 147.204 563.389 147.839C565.032 149.225 564.745 152.311 564.658 154.222C564.36 160.712 563.649 169.824 558.224 174.445C558.121 174.534 558.014 174.618 557.908 174.705C552.347 172.825 549.698 169.141 545.624 165.362C546.447 164.767 547.286 164.184 548.091 163.565L548.507 163.698C551.019 164.512 554.197 167.069 556.759 166.863L557.121 166.428C555.95 163.939 549.452 163.508 549.05 161.202L549.51 158.55C549.535 156.341 549.136 154.277 548.685 152.12Z" fill="#814546"/>
<path d="M549.51 158.55C551.657 157.883 555.312 156.473 557.509 157.313C555.831 159.403 551.299 159.421 549.05 161.202L549.51 158.55Z" fill="#401617"/>
<path d="M572.374 25.2447C577.767 24.5611 584.084 25.4146 589.366 26.5114C604.971 29.7509 617.686 40.5471 626.141 53.2456C634.155 65.2802 638.556 79.335 635.248 93.5926C633.52 101.039 629.725 105.998 624.022 111.174C622.374 112.67 620.54 114.42 618.608 115.562C617.962 115.943 618.137 115.862 617.499 115.71C614.974 107.275 612.753 99.0696 609.063 91.0014C603.159 78.0908 587.628 51.2479 573.604 46.3621C569.416 44.903 565.289 46.276 561.511 48.0749C560.877 47.7224 560.232 47.3659 559.637 46.9544C557.21 45.2775 554.799 41.7762 554.358 38.9591C553.963 36.4408 554.885 34.0363 556.487 32.0687C560.31 27.3759 566.532 25.8896 572.374 25.2447Z" fill="#F2EEE6"/>
<path d="M569.653 48.6489C569.997 48.6726 570.321 48.7003 570.659 48.7662C579.819 50.5495 589.994 64.7799 594.981 71.9506C591.094 75.4219 587.422 79.6478 584.459 83.8876C582.777 86.2943 581.334 89.0138 579.385 91.2206C578.931 91.7343 578.277 92.348 577.963 92.9473C577.604 93.6309 577.644 93.832 577.854 94.5064L578.461 94.8196C580.132 94.5838 581.63 93.4506 583.122 92.719C585.697 91.4581 588.427 90.7878 591.244 91.7569C593.636 92.5797 595.749 94.537 596.755 96.7774C598.007 99.5655 597.768 102.982 596.606 105.76C594.681 110.362 590.13 112.893 585.084 112.825C583.972 112.81 582.489 112.352 581.476 112.784C581.38 112.969 581.249 113.188 581.226 113.397C581.013 115.293 582.937 115.116 583.901 116.128C584.696 116.962 584.262 136.728 584.193 139.501C577.955 141.406 571.794 143.518 565.708 145.836C564.59 145.243 563.545 144.716 562.266 144.545C556.921 143.832 551.33 146.896 547.177 149.811L547.166 149.82L544.822 149.021L543.852 148.773C543.32 147.236 544.112 143.772 544.237 142.059C544.607 136.972 544.767 131.963 544.458 126.871C546.228 127.212 548.071 127.462 549.866 127.628C553.618 127.976 565.433 127.607 568.026 125.278C568.56 124.798 568.687 124.549 568.668 123.86C567.066 122.322 556.688 124.67 553.927 124.736C551.011 124.805 547.961 124.498 545.082 124.072C540.758 123.433 536.531 122.414 533.869 118.758C527.067 109.418 530.039 91.8216 532.173 81.1155C528.512 77.2294 524.463 73.8847 521 69.7738C529.746 67.7074 535.52 67.2006 543.861 63.0481C552.899 58.5483 558.977 49.8665 569.653 48.6489Z" fill="#F2EEE6"/>
<path d="M585.864 97.0833C586.85 97.0457 587.768 97.033 588.677 97.4664C589.75 97.9778 590.498 98.7562 590.801 99.8865C591.235 101.502 590.706 102.772 589.863 104.143C589.692 103.172 589.457 102.275 589.135 101.34C588.453 100.372 587.799 99.3086 586.516 99.0417C584.782 98.6816 582.748 100.096 581.334 100.908C582.718 99.2318 583.827 98.0599 585.864 97.0833Z" fill="#2A0704"/>
<path d="M565.397 53.1939C568.148 53.2893 570.444 53.9388 572.611 55.6383C572.892 55.8579 573.161 56.0902 573.419 56.3352C573.676 56.5806 573.92 56.8375 574.151 57.1061C574.382 57.375 574.599 57.6541 574.801 57.9434C575.003 58.2331 575.189 58.5316 575.36 58.8391C575.532 59.1465 575.687 59.4614 575.825 59.7839C575.964 60.1059 576.085 60.4341 576.19 60.7685C576.295 61.1025 576.382 61.4406 576.452 61.7827C576.521 62.1252 576.573 62.4702 576.608 62.8176C576.843 65.1407 576.297 67.1967 574.79 69.0083L573.634 68.902C571.096 66.9887 572.738 62.2866 571.178 59.5903C569.758 57.1332 566.025 56.6831 564.485 54.5063C564.635 53.729 564.766 53.7204 565.397 53.1939Z" fill="#2A0704"/>
<path d="M558.569 94.2203C558.738 94.2041 558.907 94.1868 559.076 94.1723C560.08 94.0891 560.75 94.1833 561.529 94.8126C561.394 95.4529 561.236 95.7487 560.69 96.1637C555.945 99.7759 546.131 100.28 540.327 99.5898C539.685 99.4644 538.902 99.2523 538.352 98.8964C537.679 98.4618 537.224 97.8689 537.044 97.1114C537.456 96.3596 537.945 96.0221 538.841 95.9129C540.12 95.7563 542.025 96.5034 543.39 96.5907C548.811 96.9357 553.473 95.8424 558.569 94.2203Z" fill="#2A0704"/>
<path d="M560.841 62.4228C561.879 62.4234 562.849 62.532 563.785 63.0024C565.271 63.749 566.217 64.9122 566.65 66.4696C567.824 70.6961 565.585 76.4365 563.287 80.0147C561.169 83.312 558.566 85.8152 554.538 86.6948C553.614 86.682 552.58 86.5139 551.739 86.1319C550.247 85.4535 549.119 84.3064 548.603 82.7878C547.433 79.3461 548.89 74.7347 550.493 71.5912C552.719 67.2248 556.007 64.0102 560.841 62.4228Z" fill="#2A0704"/>
<path d="M555.976 68.6935C556.244 69.0327 556.142 68.8663 556.336 69.2737C557.715 72.1746 559.324 74.8368 561.249 77.4314C559.97 79.7914 558.575 81.4464 556.353 82.9945C555.987 83.0944 555.62 83.2042 555.241 83.2493C554.275 83.3637 553.053 83.1354 552.353 82.4489C551.698 81.8075 551.473 80.8604 551.406 79.9948C551.093 75.9145 553.212 71.6776 555.976 68.6935Z" fill="#F2EEE6"/>
<path d="M72.9692 47.7331C74.9562 47.7059 76.9342 47.63 78.9112 47.8421L78.8702 156.835L47.1363 156.757C47.1933 155.011 47.2132 153.257 47.3612 151.515C53.4122 151.595 66.9102 152.595 72.4242 151.291C73.0332 122.962 72.5172 94.5152 72.5222 66.1736C73.6832 60.4992 72.9882 53.5651 72.9692 47.7331Z" fill="#383838"/>
<path d="M41.2933 44L72.5163 44.1206C72.7553 51.4507 72.3612 58.827 72.5222 66.1736C72.5172 94.5152 73.0332 122.962 72.4242 151.291C64.8522 150.064 49.6983 151.095 41.4093 151.165C40.5533 115.517 41.3083 79.6717 41.2933 44Z" fill="#F2EEE6"/>
<path d="M140.522 114.792C141.396 116.201 142.13 117.737 142.918 119.196C141.004 119.941 138.928 119.913 136.89 120.04L136.98 157.383L104.701 157.322L105.024 152.409C113.249 152.46 122.837 153.418 130.895 152.192C130.94 139.766 130.861 127.341 130.658 114.917L140.522 114.792Z" fill="#383838"/>
<path d="M182.206 56.6949C184.742 56.8272 187.438 59.4849 189.053 61.2223C195.005 67.6253 197.98 77.0479 197.427 85.5891C196.857 94.3677 193.044 101.946 186.249 107.74C183.47 110.11 180.279 112.135 177.129 114.008C184.289 128.032 190.76 142.431 198.258 156.278C187.584 156.448 176.884 156.77 166.209 156.566C165.397 154.986 164.553 153.415 163.81 151.803C173.285 151.863 182.759 151.801 192.232 151.617C188.035 143.295 183.722 135.031 179.292 126.824C176.2 121.086 172.749 115.356 170.191 109.374C173.497 107.792 176.78 106.126 179.727 103.96C185.827 99.4759 190.02 93.3998 191.053 85.915C192.63 74.4972 189.253 65.6301 182.206 56.6949Z" fill="#383838"/>
<path d="M99 44.4101C118.465 44.3459 154.491 42.053 171.076 49.0426C175.203 50.782 178.78 53.9195 182.206 56.6949C189.253 65.6301 192.63 74.4972 191.053 85.915C190.02 93.3998 185.827 99.4759 179.727 103.96C176.78 106.126 173.497 107.792 170.191 109.374C172.749 115.356 176.2 121.086 179.292 126.824C183.722 135.031 188.035 143.295 192.232 151.617C182.759 151.801 173.285 151.863 163.81 151.803C163.119 151.813 162.166 151.911 161.505 151.742C161.247 151.676 160.589 151.411 160.354 151.182C157.79 148.7 146.513 125.041 143.201 119.651L142.918 119.196C142.13 117.737 141.396 116.201 140.522 114.792L130.658 114.917C130.861 127.341 130.94 139.766 130.895 152.192C122.299 151.164 108.283 151.957 99.011 151.94L99 44.4101Z" fill="#F2EEE6"/>
<path d="M130.617 68.9313C138.504 68.7387 148.813 67.9857 155.378 72.9003C152.042 74.0764 141.209 73.089 136.579 73.5054C136.42 73.52 136.262 73.5297 136.103 73.5424C136.088 79.4667 136.614 86.0137 135.775 91.8544C134.012 91.9079 132.288 91.9926 130.536 92.19L130.617 68.9313Z" fill="#383838"/>
<path d="M155.378 72.9003C157.667 75.4705 158.395 78.5958 158.141 81.987C157.943 84.6243 156.71 86.9347 154.616 88.6137C149.354 92.8328 138.069 93.0497 131.527 92.3357C131.195 92.2997 130.866 92.2387 130.536 92.19C132.288 91.9926 134.012 91.9079 135.775 91.8544C136.614 86.0137 136.088 79.4667 136.103 73.5424C136.262 73.5297 136.42 73.52 136.579 73.5054C141.209 73.089 152.042 74.0764 155.378 72.9003Z" fill="#5D5D5D"/>
<path d="M329.926 49.9419C330.415 48.1267 330.335 48.0674 332 46.9C332.829 46.9311 333.076 46.7589 333.707 47.3601C334.703 48.3106 335.126 49.8787 335.496 51.1385C337.198 56.9423 337.609 63.176 339.006 69.0702C343.33 87.5347 347.333 106.065 351.014 124.662C353.175 135.16 356.437 146.768 356.664 157.449C350.881 157.496 328.342 158.632 324.234 157.109C323.546 155.343 323.721 153.562 323.767 151.709C332.688 151.737 341.608 151.636 350.527 151.406C343.966 117.526 337.099 83.7047 329.926 49.9419Z" fill="#383838"/>
<path d="M238.963 152.24C243.003 138.033 245.488 123.184 249.003 108.804C250.869 111.68 252.712 114.569 254.534 117.472C251.316 130.719 249.197 144.747 244.989 157.692L213.467 157.595C213.811 155.841 214.14 154.085 214.456 152.327C219.857 152.361 225.433 152.681 230.809 152.183L238.963 152.24Z" fill="#383838"/>
<path d="M282.792 103.886C292.588 91.2049 301.941 77.6722 311.001 64.4859C315.154 58.4418 318.919 51.8355 323.471 46.0911C324.11 45.2837 324.772 44.308 325.878 44.0901C327.071 43.8556 327.72 44.0638 328.569 44.8926C329.894 46.1855 329.893 48.257 329.926 49.9419C337.099 83.7047 343.966 117.526 350.527 151.406C341.608 151.636 332.688 151.737 323.767 151.709L317.453 151.803C314.909 141.998 313.684 131.673 311.561 121.743C302.476 134.25 295.105 148.478 285.403 160.493L279.58 154.64C275.2 152.898 259.232 123.867 254.534 117.472C252.712 114.569 250.869 111.68 249.003 108.804C245.488 123.184 243.003 138.033 238.963 152.24L230.809 152.183C226.001 151.62 210.957 152.979 208.026 151.217C207.23 142.475 224.677 81.2103 228.34 67.8946C229.965 61.9906 231.187 55.789 233.168 50.0028C233.671 48.5319 234.414 46.3985 235.577 45.2856C236.527 44.3751 236.855 44.4481 238.088 44.4714C239.742 45.3139 240.38 46.3937 241.363 47.9015C243.439 48.1437 244.609 47.8879 245.972 49.6127C254.442 60.333 261.947 72.1321 269.631 83.3972C273.89 89.6416 280.057 96.9201 282.792 103.886Z" fill="#F2EEE6"/>
<path d="M241.363 47.9015C243.439 48.1437 244.609 47.8879 245.972 49.6127C254.442 60.333 261.947 72.1321 269.631 83.3972C273.89 89.6416 280.057 96.9201 282.792 103.886C282.247 104.78 281.804 105.302 280.962 105.944C277.822 103.389 262.102 78.078 258.35 72.5399C252.763 64.2915 246.67 56.3211 241.363 47.9015Z" fill="#383838"/>
<path d="M309.423 110.548C310.089 114.288 310.802 118.02 311.561 121.743C302.476 134.25 295.105 148.478 285.403 160.493L279.58 154.64C283.413 150.141 286.611 144.96 289.88 140.062C296.433 130.242 302.699 120.261 309.423 110.548Z" fill="#383838"/>
<path d="M396.138 138.365L435.344 138.35L437.736 143.831C425.806 144.262 413.912 143.833 401.981 143.887C399.851 148.677 397.851 153.609 395.511 158.301L365.44 158.247L367.128 152.698C374.032 153.01 382.291 153.837 389.086 152.867L396.138 138.365Z" fill="#383838"/>
<path d="M424.066 49.7371C425.494 49.2138 426.108 48.74 427.563 49.5416C431.757 51.851 480.315 146.397 484.979 158.527C479.96 158.622 450.84 159.547 448.272 158.194C447.48 156.928 447.332 156.309 447.259 154.881L447.75 153.836C451.371 152.982 455.113 153.931 458.725 153.055L477.644 152.763C473.377 143.147 468.229 133.77 463.498 124.355C450.813 99.2528 437.669 74.3802 424.066 49.7371Z" fill="#383838"/>
<path d="M357 152.446C360.616 143.748 365.297 135.478 369.802 127.196L387.678 94.2795L404.806 62.1906C407.891 56.4647 410.768 50.2008 414.594 44.9194C415.753 44.3114 416.661 43.8133 418.048 44.0682C421.081 44.6266 422.58 47.4199 424.066 49.7371C437.669 74.3802 450.813 99.2528 463.498 124.355C468.229 133.77 473.377 143.147 477.644 152.763L458.725 153.055C453.151 152.795 447.51 153.048 441.951 153.446C440.739 150.182 439.177 147.008 437.736 143.831L435.344 138.35L396.138 138.365L389.086 152.867C382.319 151.512 364.782 152.441 357 152.446Z" fill="#F2EEE6"/>
<path d="M420.749 104.59C422.723 108.698 424.4 112.889 426.074 117.117L414.883 116.923C417.218 112.948 418.015 108.477 420.749 104.59Z" fill="#5D5D5D"/>
<path d="M416.506 95.1653C417.889 98.3204 419.303 101.462 420.749 104.59C418.015 108.477 417.218 112.948 414.883 116.923L405.804 117.101C408.549 109.605 412.778 102.26 416.506 95.1653Z" fill="#383838"/>
<path d="M5.46978e-06 40C1.43762e-05 17.9086 17.9086 0 40 0H660C682.091 0 700 17.9086 700 40V160C700 182.091 682.091 200 660 200H40C17.9086 200 1.19273e-05 182.091 0 160L5.46978e-06 40Z" fill="#5D5D5D"/>
<path d="M494 90C494 43.0558 532.056 5 579 5C625.944 5 664 43.0558 664 90V110C664 156.944 625.944 195 579 195C532.056 195 494 156.944 494 110V90Z" fill="#2A0704"/>
<path d="M541.133 151.113C542.036 151.009 542.942 150.918 543.85 151.022C545.035 151.159 545.923 151.886 546.578 152.807C547.742 154.446 547.89 156.717 547.532 158.619C547.146 160.676 546.342 161.88 544.601 163.09C543.084 163.264 541.707 163.299 540.435 162.375C539.215 161.489 538.671 160.053 538.559 158.626C538.347 155.952 539.355 153.146 541.133 151.113Z" fill="#814546"/>
<path d="M532.901 143.774C535.55 144.187 537.15 148.127 539.634 149.083L540.42 148.598L540.725 148.756L540.501 149.362C540.073 149.61 539.446 149.919 539.079 150.247C537.38 151.762 536.805 156.46 536.526 158.568C534.707 158.044 533.066 157.774 531.166 157.918C530.148 157.995 529.553 158.067 528.882 158.829L528.979 159.406C530.967 159.145 533.722 158.792 535.524 159.769C536.525 160.311 536.697 160.987 537.008 161.986C537.044 162.1 537.077 162.213 537.111 162.327C537.288 162.664 537.444 163.021 537.607 163.364L537.24 163.861C534.367 164.763 530.734 166.485 527.719 166.546C526.976 166.561 526.242 166.423 525.751 165.835C524.553 164.398 524.727 161.458 524.828 159.688C525.193 153.365 528.008 147.936 532.901 143.774Z" fill="#814546"/>
<path d="M585.935 141.84L586.499 141.86C587.955 143.301 590.328 149.916 591.304 152.144C582.847 155.186 575.442 157.961 568.628 163.923C567.48 164.841 566.452 165.96 565.402 166.983C567.157 161.053 567.072 154.592 566.822 148.48C573.01 145.934 579.587 143.993 585.935 141.84Z" fill="#F2EEE6"/>
<path d="M548.685 152.12C551.591 149.057 556.316 147.442 560.563 147.153C561.524 147.087 562.636 147.204 563.389 147.839C565.032 149.225 564.745 152.311 564.658 154.222C564.36 160.712 563.649 169.824 558.224 174.445C558.121 174.534 558.014 174.618 557.908 174.705C552.347 172.825 549.698 169.141 545.624 165.362C546.447 164.767 547.286 164.184 548.091 163.565L548.507 163.698C551.019 164.512 554.197 167.069 556.759 166.863L557.121 166.428C555.95 163.939 549.452 163.508 549.05 161.202L549.51 158.55C549.535 156.341 549.136 154.277 548.685 152.12Z" fill="#814546"/>
<path d="M549.51 158.55C551.657 157.883 555.312 156.473 557.509 157.313C555.831 159.403 551.299 159.421 549.05 161.202L549.51 158.55Z" fill="#401617"/>
<path d="M572.374 25.2447C577.767 24.5611 584.084 25.4146 589.366 26.5114C604.971 29.7509 617.686 40.5471 626.141 53.2456C634.155 65.2802 638.556 79.335 635.248 93.5926C633.52 101.039 629.725 105.998 624.022 111.174C622.374 112.67 620.54 114.42 618.608 115.562C617.962 115.943 618.137 115.862 617.499 115.71C614.974 107.275 612.753 99.0696 609.063 91.0014C603.159 78.0908 587.628 51.2479 573.604 46.3621C569.416 44.903 565.289 46.276 561.511 48.0749C560.877 47.7224 560.232 47.3659 559.637 46.9544C557.21 45.2775 554.799 41.7762 554.358 38.9591C553.963 36.4408 554.885 34.0363 556.487 32.0687C560.31 27.3759 566.532 25.8896 572.374 25.2447Z" fill="#F2EEE6"/>
<path d="M569.653 48.6489C569.997 48.6726 570.321 48.7003 570.659 48.7662C579.819 50.5495 589.994 64.7799 594.981 71.9506C591.094 75.4219 587.422 79.6478 584.459 83.8876C582.777 86.2943 581.334 89.0138 579.385 91.2206C578.931 91.7343 578.277 92.348 577.963 92.9473C577.604 93.6309 577.644 93.832 577.854 94.5064L578.461 94.8196C580.132 94.5838 581.63 93.4506 583.122 92.719C585.697 91.4581 588.427 90.7878 591.244 91.7569C593.636 92.5797 595.749 94.537 596.755 96.7774C598.007 99.5655 597.768 102.982 596.606 105.76C594.681 110.362 590.13 112.893 585.084 112.825C583.972 112.81 582.489 112.352 581.476 112.784C581.38 112.969 581.249 113.188 581.226 113.397C581.013 115.293 582.937 115.116 583.901 116.128C584.696 116.962 584.262 136.728 584.193 139.501C577.955 141.406 571.794 143.518 565.708 145.836C564.59 145.243 563.545 144.716 562.266 144.545C556.921 143.832 551.33 146.896 547.177 149.811L547.166 149.82L544.822 149.021L543.852 148.773C543.32 147.236 544.112 143.772 544.237 142.059C544.607 136.972 544.767 131.963 544.458 126.871C546.228 127.212 548.071 127.462 549.866 127.628C553.618 127.976 565.433 127.607 568.026 125.278C568.56 124.798 568.687 124.549 568.668 123.86C567.066 122.322 556.688 124.67 553.927 124.736C551.011 124.805 547.961 124.498 545.082 124.072C540.758 123.433 536.531 122.414 533.869 118.758C527.067 109.418 530.039 91.8216 532.173 81.1155C528.512 77.2294 524.463 73.8847 521 69.7738C529.746 67.7074 535.52 67.2006 543.861 63.0481C552.899 58.5483 558.977 49.8665 569.653 48.6489Z" fill="#F2EEE6"/>
<path d="M585.864 97.0833C586.85 97.0457 587.768 97.033 588.677 97.4664C589.75 97.9778 590.498 98.7562 590.801 99.8865C591.235 101.502 590.706 102.772 589.863 104.143C589.692 103.172 589.457 102.275 589.135 101.34C588.453 100.372 587.799 99.3086 586.516 99.0417C584.782 98.6816 582.748 100.096 581.334 100.908C582.718 99.2318 583.827 98.0599 585.864 97.0833Z" fill="#2A0704"/>
<path d="M565.397 53.1939C568.148 53.2893 570.444 53.9388 572.611 55.6383C572.892 55.8579 573.161 56.0902 573.419 56.3352C573.676 56.5806 573.92 56.8375 574.151 57.1061C574.382 57.375 574.599 57.6541 574.801 57.9434C575.003 58.2331 575.189 58.5316 575.36 58.8391C575.532 59.1465 575.687 59.4614 575.825 59.7839C575.964 60.1059 576.085 60.4341 576.19 60.7685C576.295 61.1025 576.382 61.4406 576.452 61.7827C576.521 62.1252 576.573 62.4702 576.608 62.8176C576.843 65.1407 576.297 67.1967 574.79 69.0083L573.634 68.902C571.096 66.9887 572.738 62.2866 571.178 59.5903C569.758 57.1332 566.025 56.6831 564.485 54.5063C564.635 53.729 564.766 53.7204 565.397 53.1939Z" fill="#2A0704"/>
<path d="M558.569 94.2203C558.738 94.2041 558.907 94.1868 559.076 94.1723C560.08 94.0891 560.75 94.1833 561.529 94.8126C561.394 95.4529 561.236 95.7487 560.69 96.1637C555.945 99.7759 546.131 100.28 540.327 99.5898C539.685 99.4644 538.902 99.2523 538.352 98.8964C537.679 98.4618 537.224 97.8689 537.044 97.1114C537.456 96.3596 537.945 96.0221 538.841 95.9129C540.12 95.7563 542.025 96.5034 543.39 96.5907C548.811 96.9357 553.473 95.8424 558.569 94.2203Z" fill="#2A0704"/>
<path d="M560.841 62.4228C561.879 62.4234 562.849 62.532 563.785 63.0024C565.271 63.749 566.217 64.9122 566.65 66.4696C567.824 70.6961 565.585 76.4365 563.287 80.0147C561.169 83.312 558.566 85.8152 554.538 86.6948C553.614 86.682 552.58 86.5139 551.739 86.1319C550.247 85.4535 549.119 84.3064 548.603 82.7878C547.433 79.3461 548.89 74.7347 550.493 71.5912C552.719 67.2248 556.007 64.0102 560.841 62.4228Z" fill="#2A0704"/>
<path d="M555.976 68.6935C556.244 69.0327 556.142 68.8663 556.336 69.2737C557.715 72.1746 559.324 74.8368 561.249 77.4314C559.97 79.7914 558.575 81.4464 556.353 82.9945C555.987 83.0944 555.62 83.2042 555.241 83.2493C554.275 83.3637 553.053 83.1354 552.353 82.4489C551.698 81.8075 551.473 80.8604 551.406 79.9948C551.093 75.9145 553.212 71.6776 555.976 68.6935Z" fill="#F2EEE6"/>
<path d="M72.9692 47.7331C74.9562 47.7059 76.9342 47.63 78.9112 47.8421L78.8702 156.835L47.1363 156.757C47.1933 155.011 47.2132 153.257 47.3612 151.515C53.4122 151.595 66.9102 152.595 72.4242 151.291C73.0332 122.962 72.5172 94.5152 72.5222 66.1736C73.6832 60.4992 72.9882 53.5651 72.9692 47.7331Z" fill="#383838"/>
<path d="M41.2933 44L72.5163 44.1206C72.7553 51.4507 72.3612 58.827 72.5222 66.1736C72.5172 94.5152 73.0332 122.962 72.4242 151.291C64.8522 150.064 49.6983 151.095 41.4093 151.165C40.5533 115.517 41.3083 79.6717 41.2933 44Z" fill="#F2EEE6"/>
<path d="M140.522 114.792C141.396 116.201 142.13 117.737 142.918 119.196C141.004 119.941 138.928 119.913 136.89 120.04L136.98 157.383L104.701 157.322L105.024 152.409C113.249 152.46 122.837 153.418 130.895 152.192C130.94 139.766 130.861 127.341 130.658 114.917L140.522 114.792Z" fill="#383838"/>
<path d="M182.206 56.6949C184.742 56.8272 187.438 59.4849 189.053 61.2223C195.005 67.6253 197.98 77.0479 197.427 85.5891C196.857 94.3677 193.044 101.946 186.249 107.74C183.47 110.11 180.279 112.135 177.129 114.008C184.289 128.032 190.76 142.431 198.258 156.278C187.584 156.448 176.884 156.77 166.209 156.566C165.397 154.986 164.553 153.415 163.81 151.803C173.285 151.863 182.759 151.801 192.232 151.617C188.035 143.295 183.722 135.031 179.292 126.824C176.2 121.086 172.749 115.356 170.191 109.374C173.497 107.792 176.78 106.126 179.727 103.96C185.827 99.4759 190.02 93.3998 191.053 85.915C192.63 74.4972 189.253 65.6301 182.206 56.6949Z" fill="#383838"/>
<path d="M99 44.4101C118.465 44.3459 154.491 42.053 171.076 49.0426C175.203 50.782 178.78 53.9195 182.206 56.6949C189.253 65.6301 192.63 74.4972 191.053 85.915C190.02 93.3998 185.827 99.4759 179.727 103.96C176.78 106.126 173.497 107.792 170.191 109.374C172.749 115.356 176.2 121.086 179.292 126.824C183.722 135.031 188.035 143.295 192.232 151.617C182.759 151.801 173.285 151.863 163.81 151.803C163.119 151.813 162.166 151.911 161.505 151.742C161.247 151.676 160.589 151.411 160.354 151.182C157.79 148.7 146.513 125.041 143.201 119.651L142.918 119.196C142.13 117.737 141.396 116.201 140.522 114.792L130.658 114.917C130.861 127.341 130.94 139.766 130.895 152.192C122.299 151.164 108.283 151.957 99.011 151.94L99 44.4101Z" fill="#F2EEE6"/>
<path d="M130.617 68.9313C138.504 68.7387 148.813 67.9857 155.378 72.9003C152.042 74.0764 141.209 73.089 136.579 73.5054C136.42 73.52 136.262 73.5297 136.103 73.5424C136.088 79.4667 136.614 86.0137 135.775 91.8544C134.012 91.9079 132.288 91.9926 130.536 92.19L130.617 68.9313Z" fill="#383838"/>
<path d="M155.378 72.9003C157.667 75.4705 158.395 78.5958 158.141 81.987C157.943 84.6243 156.71 86.9347 154.616 88.6137C149.354 92.8328 138.069 93.0497 131.527 92.3357C131.195 92.2997 130.866 92.2387 130.536 92.19C132.288 91.9926 134.012 91.9079 135.775 91.8544C136.614 86.0137 136.088 79.4667 136.103 73.5424C136.262 73.5297 136.42 73.52 136.579 73.5054C141.209 73.089 152.042 74.0764 155.378 72.9003Z" fill="#5D5D5D"/>
<path d="M329.926 49.9419C330.415 48.1267 330.335 48.0674 332 46.9C332.829 46.9311 333.076 46.7589 333.707 47.3601C334.703 48.3106 335.126 49.8787 335.496 51.1385C337.198 56.9423 337.609 63.176 339.006 69.0702C343.33 87.5347 347.333 106.065 351.014 124.662C353.175 135.16 356.437 146.768 356.664 157.449C350.881 157.496 328.342 158.632 324.234 157.109C323.546 155.343 323.721 153.562 323.767 151.709C332.688 151.737 341.608 151.636 350.527 151.406C343.966 117.526 337.099 83.7047 329.926 49.9419Z" fill="#383838"/>
<path d="M238.963 152.24C243.003 138.033 245.488 123.184 249.003 108.804C250.869 111.68 252.712 114.569 254.534 117.472C251.316 130.719 249.197 144.747 244.989 157.692L213.467 157.595C213.811 155.841 214.14 154.085 214.456 152.327C219.857 152.361 225.433 152.681 230.809 152.183L238.963 152.24Z" fill="#383838"/>
<path d="M282.792 103.886C292.588 91.2049 301.941 77.6722 311.001 64.4859C315.154 58.4418 318.919 51.8355 323.471 46.0911C324.11 45.2837 324.772 44.308 325.878 44.0901C327.071 43.8556 327.72 44.0638 328.569 44.8926C329.894 46.1855 329.893 48.257 329.926 49.9419C337.099 83.7047 343.966 117.526 350.527 151.406C341.608 151.636 332.688 151.737 323.767 151.709L317.453 151.803C314.909 141.998 313.684 131.673 311.561 121.743C302.476 134.25 295.105 148.478 285.403 160.493L279.58 154.64C275.2 152.898 259.232 123.867 254.534 117.472C252.712 114.569 250.869 111.68 249.003 108.804C245.488 123.184 243.003 138.033 238.963 152.24L230.809 152.183C226.001 151.62 210.957 152.979 208.026 151.217C207.23 142.475 224.677 81.2103 228.34 67.8946C229.965 61.9906 231.187 55.789 233.168 50.0028C233.671 48.5319 234.414 46.3985 235.577 45.2856C236.527 44.3751 236.855 44.4481 238.088 44.4714C239.742 45.3139 240.38 46.3937 241.363 47.9015C243.439 48.1437 244.609 47.8879 245.972 49.6127C254.442 60.333 261.947 72.1321 269.631 83.3972C273.89 89.6416 280.057 96.9201 282.792 103.886Z" fill="#F2EEE6"/>
<path d="M241.363 47.9015C243.439 48.1437 244.609 47.8879 245.972 49.6127C254.442 60.333 261.947 72.1321 269.631 83.3972C273.89 89.6416 280.057 96.9201 282.792 103.886C282.247 104.78 281.804 105.302 280.962 105.944C277.822 103.389 262.102 78.078 258.35 72.5399C252.763 64.2915 246.67 56.3211 241.363 47.9015Z" fill="#383838"/>
<path d="M309.423 110.548C310.089 114.288 310.802 118.02 311.561 121.743C302.476 134.25 295.105 148.478 285.403 160.493L279.58 154.64C283.413 150.141 286.611 144.96 289.88 140.062C296.433 130.242 302.699 120.261 309.423 110.548Z" fill="#383838"/>
<path d="M396.138 138.365L435.344 138.35L437.736 143.831C425.806 144.262 413.912 143.833 401.981 143.887C399.851 148.677 397.851 153.609 395.511 158.301L365.44 158.247L367.128 152.698C374.032 153.01 382.291 153.837 389.086 152.867L396.138 138.365Z" fill="#383838"/>
<path d="M424.066 49.7371C425.494 49.2138 426.108 48.74 427.563 49.5416C431.757 51.851 480.315 146.397 484.979 158.527C479.96 158.622 450.84 159.547 448.272 158.194C447.48 156.928 447.332 156.309 447.259 154.881L447.75 153.836C451.371 152.982 455.113 153.931 458.725 153.055L477.644 152.763C473.377 143.147 468.229 133.77 463.498 124.355C450.813 99.2528 437.669 74.3802 424.066 49.7371Z" fill="#383838"/>
<path d="M357 152.446C360.616 143.748 365.297 135.478 369.802 127.196L387.678 94.2795L404.806 62.1906C407.891 56.4647 410.768 50.2008 414.594 44.9194C415.753 44.3114 416.661 43.8133 418.048 44.0682C421.081 44.6266 422.58 47.4199 424.066 49.7371C437.669 74.3802 450.813 99.2528 463.498 124.355C468.229 133.77 473.377 143.147 477.644 152.763L458.725 153.055C453.151 152.795 447.51 153.048 441.951 153.446C440.739 150.182 439.177 147.008 437.736 143.831L435.344 138.35L396.138 138.365L389.086 152.867C382.319 151.512 364.782 152.441 357 152.446Z" fill="#F2EEE6"/>
<path d="M420.749 104.59C422.723 108.698 424.4 112.889 426.074 117.117L414.883 116.923C417.218 112.948 418.015 108.477 420.749 104.59Z" fill="#5D5D5D"/>
<path d="M416.506 95.1653C417.889 98.3204 419.303 101.462 420.749 104.59C418.015 108.477 417.218 112.948 414.883 116.923L405.804 117.101C408.549 109.605 412.778 102.26 416.506 95.1653Z" fill="#383838"/>
</svg>
