<svg width="170" height="170" viewBox="0 0 170 170" fill="none" xmlns="http://www.w3.org/2000/svg">
<rect width="170" height="170" rx="85" fill="#2A0704"/>
<path d="M52.1333 134.113C53.0356 134.009 53.9421 133.918 54.8498 134.022C56.0355 134.159 56.9228 134.886 57.5777 135.807C58.7424 137.446 58.8898 139.717 58.5321 141.619C58.1456 143.676 57.3422 144.88 55.6011 146.09C54.0835 146.264 52.7067 146.299 51.4353 145.375C50.2149 144.489 49.6715 143.053 49.5588 141.626C49.3467 138.952 50.3551 136.146 52.1333 134.113Z" fill="#814546"/>
<path d="M43.9012 126.774C46.55 127.187 48.1497 131.127 50.6343 132.083L51.4203 131.598L51.7247 131.756L51.5006 132.362C51.0734 132.61 50.4462 132.919 50.0789 133.247C48.3797 134.762 47.8046 139.46 47.526 141.568C45.707 141.044 44.066 140.774 42.1661 140.918C41.1476 140.995 40.5532 141.067 39.8816 141.829L39.9793 142.406C41.9672 142.145 44.722 141.793 46.5236 142.769C47.5254 143.311 47.6967 143.987 48.0083 144.986C48.0436 145.1 48.0766 145.213 48.1107 145.327C48.2881 145.664 48.4438 146.021 48.6074 146.364L48.2395 146.861C45.3673 147.763 41.7341 149.485 38.7193 149.546C37.9763 149.561 37.2418 149.423 36.7511 148.835C35.5534 147.398 35.7266 144.458 35.8284 142.688C36.1927 136.365 39.008 130.936 43.9012 126.774Z" fill="#814546"/>
<path d="M96.9355 124.84L97.4987 124.86C98.9552 126.301 101.328 132.916 102.304 135.144C93.8469 138.186 86.4422 140.961 79.6282 146.923C78.4797 147.841 77.4522 148.96 76.4019 149.983C78.1574 144.053 78.0717 137.592 77.8218 131.48C84.0097 128.934 90.587 126.993 96.9355 124.84Z" fill="#F2EEE6"/>
<path d="M59.6853 135.12C62.5911 132.057 67.3164 130.442 71.5631 130.153C72.5241 130.087 73.6362 130.204 74.3893 130.839C76.0321 132.225 75.7451 135.311 75.6576 137.222C75.3604 143.712 74.6493 152.824 69.2241 157.445C69.1211 157.534 69.0138 157.618 68.9084 157.705C63.3472 155.825 60.6984 152.141 56.6237 148.362C57.4469 147.767 58.2857 147.184 59.0909 146.565L59.5067 146.698C62.0189 147.512 65.1967 150.069 67.7586 149.863L68.1205 149.428C66.9498 146.939 60.4522 146.508 60.0501 144.202L60.5103 141.55C60.5354 139.341 60.1364 137.277 59.6853 135.12Z" fill="#814546"/>
<path d="M60.5103 141.55C62.657 140.883 66.3124 139.473 68.5095 140.313C66.8313 142.403 62.2987 142.421 60.0501 144.202L60.5103 141.55Z" fill="#401617"/>
<path d="M83.3741 8.24473C88.767 7.56112 95.0837 8.41461 100.366 9.51139C115.971 12.7509 128.686 23.5471 137.141 36.2456C145.155 48.2802 149.556 62.335 146.248 76.5926C144.52 84.0395 140.725 88.9981 135.022 94.174C133.374 95.6695 131.54 97.4205 129.608 98.5617C128.962 98.9431 129.137 98.8617 128.499 98.7097C125.974 90.2752 123.753 82.0696 120.063 74.0014C114.159 61.0908 98.6281 34.2479 84.6041 29.3621C80.4162 27.903 76.2893 29.276 72.5106 31.0749C71.8773 30.7224 71.232 30.3659 70.6365 29.9544C68.21 28.2775 65.7985 24.7762 65.3575 21.9591C64.9633 19.4408 65.8848 17.0363 67.4874 15.0687C71.3099 10.3759 77.532 8.88962 83.3741 8.24473Z" fill="#F2EEE6"/>
<path d="M80.6529 31.6489C80.9968 31.6726 81.3209 31.7003 81.6588 31.7662C90.819 33.5495 100.994 47.7799 105.981 54.9506C102.094 58.4219 98.422 62.6478 95.4587 66.8876C93.7769 69.2943 92.3342 72.0138 90.3846 74.2206C89.9305 74.7343 89.2774 75.348 88.9629 75.9473C88.604 76.6309 88.6441 76.832 88.8544 77.5064L89.4607 77.8196C91.1323 77.5838 92.6296 76.4506 94.122 75.719C96.6965 74.4581 99.4268 73.7878 102.244 74.7569C104.636 75.5797 106.749 77.537 107.755 79.7774C109.007 82.5655 108.768 85.9819 107.606 88.7596C105.681 93.3617 101.13 95.8934 96.0836 95.8246C94.9722 95.8096 93.4887 95.3525 92.4762 95.7841C92.3797 95.9691 92.2491 96.1881 92.2258 96.3967C92.0131 98.2932 93.9369 98.1158 94.9015 99.1282C95.6959 99.9621 95.2622 119.728 95.1933 122.501C88.9555 124.406 82.7938 126.518 76.7082 128.836C75.5902 128.243 74.5447 127.716 73.2655 127.545C67.9212 126.832 62.3295 129.896 58.1775 132.811L58.1661 132.82L55.8217 132.021L54.8522 131.773C54.3202 130.236 55.1123 126.772 55.2369 125.059C55.6066 119.972 55.7671 114.963 55.458 109.871C57.2278 110.212 59.0708 110.462 60.8664 110.628C64.6176 110.976 76.4331 110.607 79.0262 108.278C79.56 107.798 79.6871 107.549 79.6679 106.86C78.0658 105.322 67.6876 107.67 64.9267 107.736C62.0107 107.805 58.9611 107.498 56.0823 107.072C51.7577 106.433 47.5314 105.414 44.8694 101.758C38.0675 92.4175 41.0386 74.8216 43.1733 64.1155C39.512 60.2294 35.463 56.8847 32 52.7738C40.7456 50.7074 46.5201 50.2006 54.8606 46.0481C63.8986 41.5483 69.9768 32.8665 80.6529 31.6489Z" fill="#F2EEE6"/>
<path d="M96.8636 80.0833C97.8504 80.0457 98.7677 80.033 99.6765 80.4664C100.75 80.9778 101.498 81.7562 101.801 82.8865C102.235 84.5022 101.706 85.7718 100.863 87.143C100.692 86.1716 100.457 85.2748 100.135 84.3398C99.453 83.3719 98.7994 82.3086 97.5155 82.0417C95.7822 81.6816 93.7481 83.0962 92.3341 83.9081C93.7175 82.2318 94.8271 81.0599 96.8636 80.0833Z" fill="#2A0704"/>
<path d="M76.3972 36.1939C79.1478 36.2893 81.4438 36.9388 83.6108 38.6383C83.892 38.8579 84.1614 39.0902 84.4191 39.3352C84.6763 39.5806 84.9203 39.8375 85.1512 40.1061C85.3821 40.375 85.5985 40.6541 85.8006 40.9434C86.0028 41.2331 86.1893 41.5316 86.3603 41.8391C86.5316 42.1465 86.6866 42.4614 86.8252 42.7839C86.9638 43.1059 87.0854 43.4341 87.1901 43.7685C87.2947 44.1025 87.382 44.4406 87.4519 44.7827C87.5214 45.1252 87.5733 45.4702 87.6076 45.8177C87.8431 48.1407 87.2967 50.1967 85.7899 52.0083L84.6335 51.902C82.0962 49.9887 83.7384 45.2866 82.1783 42.5903C80.7577 40.1332 77.0245 39.6831 75.4853 37.5063C75.6351 36.729 75.7663 36.7204 76.3972 36.1939Z" fill="#2A0704"/>
<path d="M69.5687 77.2203C69.7377 77.2041 69.9072 77.1868 70.0762 77.1723C71.0797 77.0891 71.7496 77.1833 72.529 77.8126C72.3936 78.4529 72.2355 78.7487 71.6896 79.1637C66.9451 82.7759 57.1306 83.2798 51.3268 82.5898C50.6845 82.4644 49.9021 82.2523 49.3521 81.8964C48.6792 81.4618 48.2239 80.8689 48.0436 80.1113C48.4564 79.3595 48.9447 79.0221 49.841 78.9129C51.1195 78.7563 53.0254 79.5034 54.3896 79.5907C59.8106 79.9357 64.4731 78.8424 69.5687 77.2203Z" fill="#2A0704"/>
<path d="M71.8413 45.4228C72.879 45.4234 73.849 45.532 74.7849 46.0024C76.2713 46.749 77.2174 47.9122 77.6499 49.4696C78.8242 53.6961 76.5853 59.4365 74.287 63.0147C72.1691 66.3119 69.5664 68.8152 65.5384 69.6948C64.614 69.682 63.5805 69.5139 62.7393 69.1319C61.2468 68.4535 60.1186 67.3064 59.6028 65.7878C58.4327 62.3461 59.8904 57.7347 61.4931 54.5912C63.7194 50.2248 67.0075 47.0102 71.8413 45.4228Z" fill="#2A0704"/>
<path d="M66.9758 51.6935C67.2442 52.0327 67.1418 51.8663 67.3359 52.2737C68.7145 55.1746 70.3238 57.8368 72.2488 60.4314C70.9703 62.7914 69.5749 64.4464 67.3527 65.9945C66.9872 66.0944 66.6199 66.2042 66.2407 66.2493C65.2749 66.3637 64.0532 66.1354 63.3528 65.4489C62.698 64.8075 62.4727 63.8604 62.4062 62.9948C62.0929 58.9145 64.212 54.6776 66.9758 51.6935Z" fill="#F2EEE6"/>
</svg>
