<svg width="1024" height="1024" viewBox="0 0 1024 1024" fill="none" xmlns="http://www.w3.org/2000/svg">
<g clip-path="url(#clip0_2050_75)">
<path d="M514.295 368.041C514.316 376.543 519.05 382.136 524.757 387.751C511.751 401.263 495.337 411.475 476.961 415.76C470.922 417.168 464.059 417.631 458.33 419.921C457.885 420.494 457.583 420.613 457.645 421.399C458.086 426.988 472.126 440.189 476.759 444.083C473.418 463.021 469.559 489.034 478.299 506.672C482.54 515.232 488.513 518.46 497.176 521.383C498.592 533.631 498.226 545.399 496.597 557.575C492.343 553.915 488.396 549.916 484.129 546.256C483.013 546.967 481.966 547.718 480.961 548.582C468.242 559.525 466.436 572.124 465.337 587.858C452.962 596.477 441.271 606.016 429.477 615.404C406.244 633.897 383.196 652.978 359.17 670.424C354.275 662.195 351.082 651.721 347.522 642.821L321.583 576.692C319.604 571.59 317.559 566.498 315.703 561.349C314.25 557.32 313.081 552.977 311.21 549.134C310.607 547.895 310.116 547.715 308.854 547.267C306.727 547.458 305.125 548.415 303.282 549.397C302.279 545.69 301.264 541.997 300.47 538.239C303.056 531.817 306.173 524.906 306.012 517.833C305.906 513.203 304.66 510.872 301.36 507.749L303.619 493.735C322.899 498.72 353.646 499.342 372.829 494.974C376.268 495.978 379.476 497.665 382.891 498.745C385.077 499.437 387.044 500.047 389.183 498.944C391.377 495.786 393.809 488.589 393.875 484.661C389.19 480.767 343.247 464.259 334.192 461.192L334.742 460.713C335.831 461.059 336.363 461.075 337.478 460.829C338.421 460.008 339.078 459.303 339.545 458.12C340.932 454.611 339.276 448.399 337.712 445.08C334.599 438.474 328.543 433.84 321.78 431.401C314.059 428.616 305.713 428.894 298.294 432.474C292.356 435.34 288.203 439.589 285.961 445.802C281.069 445.89 272.609 442.312 267.608 440.741L268.219 440.189C269.77 440.415 270.205 440.554 271.704 439.968C273.234 437.903 273.727 435.162 273.309 432.631C272.535 427.938 268.582 423.861 264.755 421.357C264.429 421.14 264.098 420.931 263.762 420.731C263.426 420.531 263.085 420.339 262.739 420.156C262.393 419.972 262.043 419.798 261.688 419.633C261.333 419.467 260.974 419.311 260.612 419.164C260.249 419.016 259.883 418.878 259.513 418.75C259.144 418.62 258.771 418.501 258.395 418.391C258.02 418.281 257.642 418.18 257.261 418.09C256.88 417.998 256.498 417.917 256.113 417.845C255.728 417.773 255.342 417.711 254.954 417.659C254.566 417.607 254.177 417.564 253.787 417.532C253.397 417.499 253.006 417.476 252.615 417.463C252.224 417.45 251.832 417.447 251.441 417.454C251.05 417.46 250.659 417.477 250.269 417.504C249.878 417.53 249.489 417.566 249.1 417.613C248.711 417.659 248.324 417.714 247.938 417.78C247.552 417.846 247.168 417.921 246.786 418.006C242.209 419.071 237.731 421.8 235.437 426.019C234.479 427.781 233.89 429.923 233.34 431.842C228.95 430.822 223.037 430.197 219.035 428.276C220.38 428.088 220.666 428.14 221.663 427.253C222.92 423.032 220.813 417.379 218.771 413.653C214.973 406.723 208.095 401.824 200.555 399.711C192.947 397.579 184.543 398.321 177.629 402.25C171.837 405.541 167.875 410.647 166.25 417.097C166.111 417.643 165.979 418.19 165.852 418.74C157.804 417.733 125.742 413.212 119.447 415.959C116.766 419.467 116.008 425.789 115 430.108C121.98 434.926 130.826 436.023 138.23 439.915C141.654 441.714 142.866 445.723 146.018 447.677C153 452.003 161.703 454.075 169.166 457.672C167.977 460.636 167.131 463.025 168.484 466.091C171.216 472.282 181.169 479.945 186.261 484.688C204.734 501.901 220.928 516.294 240.979 531.751C246.282 535.84 251.49 540.298 257.059 544.008C259.377 550.181 260.912 556.652 262.675 563.001C259.531 563.342 256.039 563.306 253.26 564.918C252.53 566.045 252.238 566.651 252.522 568.024C252.924 569.975 254.349 572.092 255.323 573.828C252.424 576.606 249.844 579.283 247.75 582.743C251.513 592.928 254.677 603.295 258.205 613.559C270.66 649.795 282.579 686.299 296.219 722.107C303.845 742.125 314.5 764.5 323.578 782.483C325.266 783.532 326.539 783.988 328.532 783.578C330.119 783.251 376.033 750.667 377.5 750C424.5 712 362.795 801.156 362.795 930.285C362.651 933.233 362.594 936.214 362.346 939.154C361.56 967.446 361.268 995.743 361.471 1024.05H367.014H564.107H570.43H669.327H674.074C665.999 995.227 657.456 966.678 645.579 939.161C643.954 936.286 642.789 933.176 641.531 930.128C634.481 913.09 625.07 897.073 615.365 881.436C613.177 877.91 605.849 869.92 605.248 866.451C604.765 863.665 605.309 863.57 607.766 862.614C615.724 859.518 624.423 857.584 632.593 855.028C645.696 850.929 706.732 831.602 712.588 823.337C713.007 820.745 712.767 818.699 712.058 816.171C710.632 811.092 708.16 806.037 706.159 801.156C701.576 790.088 696.877 779.07 692.06 768.103C672.963 724.385 652.922 681.105 631.937 638.262C622.015 618.2 611.789 598.104 600.786 578.614C600.874 578.52 600.967 578.429 601.052 578.332C602.869 576.266 603.854 574.006 603.527 571.194C603.285 569.108 601.955 567.468 600.295 566.274C595.977 563.169 590.52 563.172 585.485 563.895C583.488 558.937 579.487 545.8 575.345 543.074C575.192 542.973 575.037 542.876 574.884 542.778C573.797 539.865 574.514 534.535 574.541 531.351C596.745 526.632 620.913 516.589 637.764 500.957C652.925 486.892 660.848 471.73 661.554 450.89C662.532 422.026 649.251 394.386 629.675 373.728C609.626 352.571 585.807 341.626 556.649 341.022C544.449 340.769 530.856 342.645 521.754 351.555C517.242 355.971 514.279 361.631 514.295 368.041Z" fill="#2A0704"/>
<path d="M283.365 938.961L363.539 939.108C363.787 936.168 363.844 933.187 363.988 930.239C347.441 930.974 330.55 930.178 313.974 930.104C307.177 930.074 299.68 929.453 292.974 930.508C292.766 930.613 292.569 930.746 292.348 930.822C290.048 931.611 284.047 931.312 281.837 930.468L281.297 929.166C278.76 919.992 277.678 909.825 276 900.41C271.09 872.863 267.361 844.825 261.359 817.52C239.471 826.076 218.695 836.124 198.326 847.817L198.044 847.405C205.392 839.991 250.656 820.597 262.066 816.582C265.797 831.009 267.689 846.338 270.02 861.069C272.315 875.051 274.765 889.006 277.372 902.932C278.981 911.85 280.02 921.699 282.756 930.301L291.824 930.148C288.961 907.657 284.778 885.074 281.134 862.684C278.437 846.109 276.478 829.23 272.759 812.857C291.032 808.148 315.765 801.776 334.41 801.006L334.272 781.812C332.805 782.479 331.312 783.205 329.725 783.532C327.732 783.942 326.459 783.486 324.771 782.437C313.821 782.834 302.189 785.2 291.456 787.39C247.01 796.456 214.002 810.331 174.182 831.538C174.691 819.54 174.479 807.482 174.494 795.474L174.558 738.989C193.366 735.983 212.087 733.218 231.065 731.471L230.947 712.623C224.846 712.131 218.743 710.593 212.736 709.436L157 701C124.216 695 85.8112 689.732 85.8112 689.732V744.989C85.8111 768.252 84.5315 787.973 88.5772 809.014C88.9406 810.972 89.3405 812.923 89.777 814.866C90.2134 816.81 90.6861 818.744 91.1951 820.669C91.7039 822.595 92.2487 824.51 92.8294 826.415C93.41 828.32 94.0261 830.213 94.6777 832.095C95.3293 833.977 96.0158 835.847 96.7374 837.703C97.459 839.559 98.215 841.401 99.0056 843.229C99.7958 845.057 100.62 846.87 101.479 848.667C102.338 850.464 103.23 852.244 104.155 854.008C105.08 855.772 106.037 857.517 107.028 859.245C108.019 860.973 109.041 862.682 110.096 864.371C111.15 866.061 112.236 867.73 113.353 869.378C114.47 871.028 115.617 872.655 116.795 874.26C117.973 875.866 119.181 877.45 120.418 879.01C121.655 880.571 122.921 882.108 124.216 883.621C125.511 885.135 126.834 886.623 128.184 888.086C129.535 889.55 130.912 890.988 132.317 892.4C157.12 917.365 192.296 934.402 227.388 938.069C245.755 939.988 264.885 938.95 283.365 938.961Z" fill="#5D5D5D"/>
<path d="M938.628 784.181C938.674 782.838 938.719 780.151 938.719 780.151V675.975C938.719 675.975 910.579 674.427 901.274 675.974L845.048 685.216C836.402 686.654 827.466 687.738 818.937 689.732C818.914 697.294 818.941 704.855 819.018 712.415C831.841 714.633 844.782 716.351 857.656 718.259C865.814 719.468 874.248 721.199 882.455 721.727C882.674 752.949 882.702 784.17 882.542 815.391C827.457 785.543 778.7 769.721 715.624 766.999C715.561 773.37 715.534 779.741 715.544 786.111C736.825 788.229 759.843 790.973 780.12 798.042L766.578 894.662C764.852 906.2 764.265 918.692 761.409 929.973L642.724 930.082C643.982 933.13 645.147 936.24 646.772 939.115C677.551 938.334 708.514 938.984 739.309 939.062C783.848 939.175 814.847 941.557 855.771 919.134C867.707 912.594 879.068 904.92 888.906 895.469C889.875 894.538 890.831 893.595 891.777 892.64C892.722 891.686 893.656 890.719 894.577 889.741C895.498 888.763 896.407 887.774 897.305 886.773C898.201 885.773 899.085 884.761 899.957 883.738C900.829 882.716 901.688 881.682 902.534 880.638C903.38 879.594 904.212 878.54 905.032 877.475C905.852 876.411 906.659 875.336 907.452 874.251C908.245 873.167 909.024 872.072 909.79 870.968C910.556 869.864 911.308 868.751 912.047 867.628C912.785 866.506 913.509 865.374 914.219 864.233C914.929 863.093 915.625 861.943 916.307 860.785C916.988 859.627 917.655 858.461 918.308 857.286C918.96 856.112 919.598 854.929 920.222 853.739C920.844 852.549 921.453 851.351 922.047 850.145C922.64 848.939 923.218 847.727 923.782 846.507C924.345 845.287 924.893 844.061 925.426 842.827C925.958 841.593 926.476 840.353 926.978 839.107C927.48 837.861 927.966 836.608 928.438 835.349C928.908 834.091 929.363 832.827 929.803 831.557C930.242 830.287 930.666 829.012 931.074 827.732C931.482 826.452 931.874 825.166 932.25 823.876C932.626 822.586 932.985 821.292 933.329 819.993C933.673 818.694 934 817.391 934.312 816.084C934.623 814.777 934.918 813.466 935.197 812.151C935.476 810.837 935.738 809.52 935.984 808.198C936.23 806.878 936.459 805.554 936.673 804.227C936.886 802.901 937.083 801.572 937.263 800.24C937.443 798.908 937.607 797.575 937.754 796.239C937.901 794.903 938.031 793.566 938.145 792.227C938.259 790.889 938.356 789.549 938.436 788.207C938.516 786.866 938.58 785.524 938.628 784.181Z" fill="#5D5D5D"/>
<path d="M927.839 684.744L928.255 684.715C929.487 686.329 929.03 703.864 929.07 707.234C922.276 705.531 915.149 704.586 908.24 703.411L872.535 697.336L859.89 695.513C882.588 692.214 905.178 688.275 927.839 684.744Z" fill="#F2EEE6"/>
<path d="M99.6013 751.695C99.9659 751.792 99.9447 751.729 100.205 752.103C100.639 752.725 100.664 753.174 100.771 753.898C102.1 762.845 118.245 856.505 118.002 857.706L117.148 856.764C115.548 854.204 114.095 851.544 112.669 848.883C97.8378 821.208 95.0768 799.204 95.519 768.297C95.5917 763.214 94.4421 757.937 95.9396 753.001C97.2028 751.74 97.8681 751.916 99.6013 751.695Z" fill="#F2EEE6"/>
<path d="M95.0921 699.875C113.015 702.765 130.817 706.691 148.688 709.913C156.46 711.313 177.012 713.917 183.36 716.629C178.693 717.002 174.035 717.476 169.388 718.05C158.518 719.603 147.671 720.917 136.852 722.847C122.957 725.325 109.226 728.561 95.4819 731.751C95.2018 721.127 95.0719 710.502 95.0921 699.875Z" fill="#F2EEE6"/>
<path d="M900.309 724.41C910.021 725.406 919.809 727.424 929.451 728.996C929.399 776.648 933.35 802.045 911.016 847.251C907.568 853.81 903.68 859.956 899.539 866.087C899.088 818.848 900.267 771.636 900.309 724.41Z" fill="#F2EEE6"/>
<path d="M198.326 847.817C218.695 836.124 239.471 826.076 261.359 817.52C267.361 844.825 271.09 872.862 276 900.409C277.678 909.824 278.76 919.992 281.297 929.166L280.807 929.794C275.256 930.966 266.718 930.057 260.825 930.057C226.41 930.062 205.478 927.871 174.563 911.427C174.148 895.447 174.391 879.396 174.54 863.411C182.343 858.055 190.684 853.379 198.326 847.817Z" fill="#F2EEE6"/>
<path d="M795.04 802.209C823.465 812.659 858.938 828.551 883.505 846.01C883.672 859.073 883.649 872.135 883.436 885.198C872.838 896.247 859.323 905.08 845.851 912.181C823.831 924.45 799.192 929.529 774.189 930.117C780.67 887.405 787.62 844.769 795.04 802.209Z" fill="#F2EEE6"/>
<path d="M256.842 131.218C268.535 130.862 280.329 131.105 292.032 131.101L361.079 131.171L559.858 131.114L690.713 131.093L732.361 131.111C740.154 131.119 748.211 130.742 755.977 131.358C760.462 131.714 763.783 133.089 767.123 136.115C772.399 140.896 774.622 147.376 774.93 154.345C775.441 165.888 774.97 177.624 774.955 189.188L774.927 254.834L774.893 296.09C774.893 303.728 775.461 311.951 774.539 319.517C774.041 323.602 772.898 326.902 770.012 329.937C765.635 334.538 760.129 335.769 754.041 335.937L410.254 336.053L304.719 336.051L271.162 336.052C264.923 336.052 258.522 336.346 252.309 335.829C248.067 335.476 244.557 333.924 241.219 331.301C237.312 328.23 235.694 323.075 235.16 318.31C234.194 309.692 234.951 300.17 234.961 291.464L234.971 238.941L234.935 180.739C234.93 170.908 234.126 160.349 235.21 150.614C235.702 146.19 236.982 142.602 239.868 139.146C244.32 133.816 250.122 131.69 256.842 131.218Z" fill="#5E5E5E"/>
<path d="M408.358 209.363C410.647 212.005 411.375 215.217 411.121 218.703C410.923 221.414 409.69 223.789 407.596 225.515C402.334 229.852 391.049 230.075 384.507 229.341C384.175 229.304 383.846 229.242 383.516 229.192C385.268 228.989 386.992 228.902 388.755 228.847C389.594 222.843 389.068 216.113 389.083 210.023C389.242 210.01 389.4 210 389.559 209.985C394.189 209.557 405.022 210.572 408.358 209.363Z" fill="#5E5E5E"/>
<path d="M175.356 460.238C177.358 460.414 179.357 461.321 180.848 462.662C184.225 465.7 186.845 470.066 189.593 473.691C193.439 478.764 197.378 483.645 201.618 488.393L201.465 488.961C194 482.566 179.059 472.105 174.315 464.296C174.165 462.505 174.628 461.852 175.356 460.238Z" fill="#F2EEE6"/>
<path d="M498.456 564.007C499.962 563.827 501.475 563.671 502.99 563.851C504.969 564.087 506.45 565.346 507.543 566.94C509.487 569.776 509.733 573.706 509.136 576.997C508.491 580.557 507.15 582.64 504.244 584.735C501.711 585.036 499.413 585.095 497.291 583.496C495.254 581.963 494.347 579.479 494.159 577.009C493.805 572.381 495.488 567.526 498.456 564.007Z" fill="#814546"/>
<path d="M238.914 432.665C239.576 430.922 240.195 429.094 241.421 427.654C244.185 424.404 248.261 422.635 252.475 422.428C253.029 422.398 253.583 422.396 254.137 422.422C254.69 422.448 255.241 422.501 255.79 422.581C256.339 422.663 256.882 422.771 257.42 422.906C257.958 423.042 258.488 423.203 259.009 423.391C259.53 423.579 260.041 423.793 260.542 424.033C261.042 424.273 261.529 424.536 262.002 424.824C262.476 425.113 262.934 425.424 263.377 425.758C263.82 426.092 264.244 426.448 264.651 426.824C268.73 430.628 269.266 434.896 269.412 440.142L268.801 440.694C258.815 438.498 248.733 435.533 238.914 432.665Z" fill="#F2EEE6"/>
<path d="M187.244 460.487C190.484 460.316 192.634 460.616 195.448 462.378C198.741 464.441 201.457 467.257 203.89 470.258C209.626 477.333 224.692 501.492 226.632 510.003C219.744 501.697 189.04 468.338 187.244 460.487Z" fill="#F2EEE6"/>
<path d="M307.843 553.506C309.022 554.913 309.528 557.995 310.084 559.801C300.407 566.248 274.431 579.927 263.552 578.906C262.479 575.556 260.95 572.328 259.551 569.101C276.329 566.262 292.747 561.512 307.843 553.506Z" fill="#F2EEE6"/>
<path d="M529.391 817.965C530.035 818.406 530.246 818.688 530.52 819.426C533.598 827.697 536.251 836.137 539.29 844.428C541.372 850.104 543.81 855.622 545.998 861.255C543.091 862.489 540.079 863.499 537.107 864.568L536.189 864.511C532.329 860.729 522.186 830.007 519.97 823.016C522.99 821.021 526.114 819.493 529.391 817.965Z" fill="#F2EEE6"/>
<path d="M484.716 551.309C489.137 552.023 491.807 558.842 495.954 560.495L497.266 559.656L497.774 559.929L497.4 560.978C496.687 561.408 495.64 561.943 495.027 562.51C492.191 565.131 491.231 573.262 490.766 576.91C487.73 576.002 484.991 575.535 481.82 575.785C480.12 575.918 479.128 576.042 478.007 577.362L478.17 578.359C481.488 577.908 486.086 577.298 489.093 578.987C490.765 579.926 491.051 581.096 491.571 582.824C491.63 583.021 491.685 583.218 491.742 583.415C492.038 583.997 492.298 584.615 492.571 585.209L491.957 586.069C487.163 587.63 481.099 590.61 476.067 590.716C474.827 590.742 473.601 590.503 472.782 589.485C470.783 586.998 471.072 581.91 471.242 578.847C471.85 567.906 476.549 558.51 484.716 551.309Z" fill="#814546"/>
<path d="M290.839 446.811C295.917 440.377 301.142 435.917 309.631 434.789C316.286 433.905 323.205 436.006 328.386 440.248C332.481 443.601 335.566 448.685 336.027 454.025C336.215 456.209 336.04 458.477 335.935 460.666L335.385 461.145C325.539 458.1 315.714 454.99 305.909 451.814C300.962 450.233 295.546 448.97 290.839 446.811Z" fill="#F2EEE6"/>
<path d="M190.802 403.604C197.299 402.986 204.598 405.224 209.682 409.23C215.893 414.123 217.494 420.464 218.345 427.905L204.391 425.038C193.606 422.876 182.705 421.274 171.896 419.214C172.642 416.916 173.383 414.681 174.744 412.656C178.586 406.941 184.348 404.85 190.802 403.604Z" fill="#F2EEE6"/>
<path d="M528.83 865.012L529.504 865.029C530.51 866.682 531.248 868.483 532.04 870.245C536.034 868.78 543.621 864.806 547.62 866.36C550.749 867.577 551.622 871.515 552.672 874.349C540.793 879.636 529.111 884.561 516.118 886.372C506.146 887.964 495.158 887.273 485.111 886.657C500.058 880.241 514.239 872.169 528.83 865.012Z" fill="#5E5E5E"/>
<path d="M231.852 475.281C238.175 475.934 247.009 479.442 253.317 481.236C263.671 484.181 274.144 486.692 284.572 489.361L278.653 499.801C278.556 499.97 278.469 500.147 278.361 500.31C276.28 503.448 265.672 504.37 262.063 505.107C255.617 500.767 247.431 496.41 242.208 490.623C238.259 486.248 235.049 480.245 231.852 475.281Z" fill="#F2EEE6"/>
<path d="M573.234 547.961L574.174 547.996C576.605 550.49 580.565 561.937 582.195 565.793C568.079 571.056 555.72 575.858 544.347 586.176C542.43 587.765 540.715 589.701 538.962 591.472C541.892 581.209 541.749 570.028 541.332 559.451C551.66 555.045 562.638 551.687 573.234 547.961Z" fill="#F2EEE6"/>
<path d="M511.061 565.751C515.911 560.45 523.798 557.656 530.886 557.155C532.49 557.041 534.346 557.243 535.603 558.343C538.345 560.741 537.866 566.082 537.72 569.388C537.224 580.62 536.037 596.388 526.982 604.385C526.81 604.538 526.631 604.684 526.455 604.834C517.173 601.581 512.752 595.206 505.951 588.667C507.325 587.636 508.725 586.627 510.069 585.557L510.763 585.786C514.956 587.196 520.26 591.621 524.536 591.263L525.14 590.511C523.186 586.203 512.341 585.457 511.67 581.468L512.438 576.878C512.48 573.056 511.814 569.483 511.061 565.751Z" fill="#814546"/>
<path d="M512.438 576.877C516.021 575.722 522.122 573.283 525.789 574.736C522.988 578.353 515.423 578.384 511.67 581.467L512.438 576.877Z" fill="#401617"/>
<path d="M125.226 420.215C144.151 419.417 164.426 423.202 183.013 426.542C253.731 439.249 322.542 460.898 389.344 487.134C388.805 489.337 388.425 491.685 387.266 493.655L386.357 493.734C373.465 488.2 360.448 482.976 347.306 478.063C334.164 473.151 320.912 468.555 307.55 464.276C294.189 459.997 280.732 456.04 267.181 452.404C253.63 448.768 240 445.458 226.291 442.474C191.838 434.87 157.261 429.187 121.942 428.13C122.308 426.179 122.567 424 123.289 422.152C123.807 420.826 124.001 420.76 125.226 420.215Z" fill="#F2EEE6"/>
<path d="M210.977 467.602C211.448 467.558 211.919 467.511 212.392 467.487C225.023 466.828 232.26 488.875 240.953 496.612C248.641 503.454 257.851 509.056 266.195 515.125C269.84 517.775 273.893 521.614 277.826 523.705C278.903 524.277 279.406 524.234 280.579 524.17C281.519 523.38 282.017 523 282.337 521.792C279.924 517.626 270.835 511.895 266.827 508.78C269.794 508.463 272.99 508.074 275.864 507.294C283.622 505.188 286.693 496.825 290.112 490.385C293.487 491.29 296.94 492.004 300.343 492.803C298.955 498.135 297.82 503.31 297.591 508.829C299.027 510.938 300.685 512.91 302.175 514.987C302.154 523.514 299.473 529.703 296.2 537.366C297.043 542.151 297.946 546.933 299.557 551.526C289.833 556.113 279.502 559.602 269.14 562.428C267.036 556.127 265.45 549.61 264.125 543.105C254.262 533.787 242.964 525.755 232.172 517.539L234.307 513.208C231.518 507.18 228.815 501.062 225.619 495.236C223.25 490.916 210.754 471.643 210.046 468.806L210.977 467.602Z" fill="#F2EEE6"/>
<path d="M140.592 434.186C207.221 440.236 273.654 457.305 336.561 479.672C343.483 482.133 360.774 487.631 366.034 491.383C365.058 492.176 363.86 491.955 362.624 492.018C317.81 494.745 275.621 481.944 233.023 469.817C230.831 469.193 228.001 468.724 225.998 467.691C222.597 465.938 220.193 462.865 216.28 461.993C212.676 461.19 209.468 462.607 206.504 464.527C203.134 461.267 199.569 458.017 195.066 456.419C190.597 454.834 187.654 455.564 183.572 457.483C173.668 451.569 161.363 448.003 150.518 444.035C147.894 439.623 144.76 436.991 140.592 434.186Z" fill="#5E5E5E"/>
<path d="M495.458 589.04C497.695 588.865 499.942 589.274 502.161 589.549C507.223 598.133 514.58 604.475 523.171 609.319C508.99 633.594 498.123 658.45 488 684.638C482.152 683.662 476.271 683.035 470.381 682.38C459.956 681.205 449.524 680.095 439.085 679.049C444.684 664.132 451.892 649.509 459.342 635.433C464.613 625.471 479.214 598.535 487.604 592.291C489.868 590.606 492.795 589.863 495.458 589.04Z" fill="#F2EEE6"/>
<path d="M465.509 647.053C466.479 647.007 467.532 646.883 468.493 647.046C469.65 647.242 471.132 648.402 471.704 649.441C472.476 650.843 472.566 652.319 472.058 653.817C471.265 656.155 469.663 657.206 467.523 658.209C466.711 658.18 465.781 658.194 464.992 658.008C463.361 657.622 461.812 656.535 461.084 654.992C460.572 653.905 460.529 652.731 460.871 651.59C461.617 649.105 463.307 648.151 465.509 647.053Z" fill="#2A0704"/>
<path d="M487.96 608.082C488.98 608.195 490.285 608.264 491.233 608.643C491.383 608.702 491.53 608.769 491.673 608.844C491.816 608.918 491.955 608.999 492.09 609.087C492.225 609.175 492.356 609.27 492.481 609.371C492.606 609.472 492.727 609.579 492.842 609.692C492.957 609.805 493.066 609.924 493.169 610.048C493.272 610.172 493.368 610.301 493.459 610.435C493.549 610.568 493.632 610.706 493.709 610.848C493.785 610.99 493.854 611.136 493.916 611.285C494.51 612.729 494.32 614.276 493.639 615.648C492.517 617.911 490.826 618.8 488.529 619.605C487.447 619.358 486.246 619.141 485.251 618.638C484.064 618.038 483.147 616.921 482.725 615.668C482.21 614.139 482.345 612.694 483.19 611.304C484.332 609.428 485.912 608.642 487.96 608.082Z" fill="#2A0704"/>
<path d="M454.083 805.922C460.293 806.725 466.747 809.53 472.639 811.603L499.79 821.247C504.786 823.028 510.453 825.788 515.802 825.716C518.247 837.259 523.456 848.9 527.464 860.006C513.884 866.803 493.346 879.962 478.727 882.482C475.7 881.636 472.664 879.613 469.523 879.523L468.778 880.227C468.412 881.588 468.511 882.199 468.933 883.536C470.723 885.205 473.401 885.865 475.669 886.702C472.684 888.049 469.685 888.976 466.542 889.881C464.81 890.348 463.054 890.688 461.273 890.901C456.954 891.429 451.409 890.31 448.002 887.494C443.311 883.617 445.011 879.209 444.557 874.012C443.183 873.173 441.445 875.47 439.213 874.565C432.637 871.899 439.811 858.821 437.505 854.763C437.37 854.776 437.232 854.768 437.1 854.8C435.067 855.289 433.08 858.557 431.875 860.19C431.157 859.756 430.45 859.304 429.755 858.835C427.424 857.236 425.206 855.115 424.737 852.207C423.726 845.932 432.558 838.671 435.734 833.812C436.411 832.776 436.711 832.264 436.417 831.023C435.563 830.613 435.534 830.504 434.508 830.571C430.483 830.835 426.651 836.833 424.295 839.727C421.228 838.529 415.539 837.044 413.564 834.304C413.542 833.723 413.5 833.662 413.69 833.021C415.657 826.359 446.817 809.87 454.083 805.922Z" fill="#F2EEE6"/>
<path d="M571.623 1024C588.024 982.814 599.067 946.602 604.685 902.472C605.737 894.209 607.331 885.633 607.564 877.322C613.321 884.74 617.806 893.347 622.28 901.576C627.439 911.282 632.32 921.126 636.922 931.108C641.524 941.09 645.84 951.195 649.87 961.421C653.899 971.648 657.636 981.98 661.081 992.418C664.526 1002.86 667.672 1013.39 670.52 1024H571.623Z" fill="#5E5E5E"/>
<path d="M550.599 346.191C559.6 345.008 570.143 346.485 578.96 348.383C605.005 353.989 626.227 372.672 640.34 394.647C653.716 415.473 661.061 439.795 655.54 464.468C652.656 477.355 646.322 485.936 636.803 494.893C634.053 497.481 630.991 500.511 627.767 502.486C626.688 503.146 626.981 503.005 625.916 502.742C621.701 488.146 617.994 473.946 611.836 459.984C601.981 437.642 576.059 391.19 552.652 382.735C545.662 380.21 538.774 382.586 532.467 385.699C531.41 385.089 530.333 384.472 529.339 383.76C525.289 380.858 521.264 374.799 520.528 369.924C519.87 365.566 521.408 361.405 524.083 358C530.463 349.879 540.848 347.307 550.599 346.191Z" fill="#F2EEE6"/>
<path d="M546.057 386.691C546.631 386.732 547.172 386.78 547.736 386.894C563.025 389.98 580.007 414.606 588.331 427.015C581.843 433.022 575.715 440.335 570.769 447.672C567.962 451.837 565.554 456.543 562.3 460.362C561.542 461.251 560.452 462.313 559.927 463.35C559.328 464.533 559.395 464.881 559.746 466.048L560.758 466.59C563.548 466.182 566.047 464.221 568.538 462.955C572.835 460.773 577.392 459.613 582.094 461.29C586.086 462.714 589.613 466.101 591.292 469.978C593.382 474.803 592.983 480.715 591.044 485.522C587.831 493.486 580.234 497.867 571.812 497.748C569.957 497.722 567.481 496.931 565.791 497.678C565.63 497.998 565.412 498.377 565.373 498.738C565.018 502.02 568.229 501.713 569.839 503.465C571.165 504.908 570.441 539.114 570.326 543.912C559.915 547.209 549.63 550.863 539.473 554.875C537.607 553.849 535.862 552.936 533.727 552.641C524.807 551.407 515.474 556.709 508.544 561.753L508.525 561.769L504.612 560.387L502.994 559.958C502.106 557.298 503.428 551.303 503.636 548.339C504.253 539.535 504.521 530.868 504.005 522.055C506.959 522.646 510.035 523.078 513.032 523.366C519.293 523.968 539.014 523.329 543.342 519.298C544.233 518.469 544.445 518.037 544.413 516.845C541.739 514.183 524.417 518.246 519.809 518.36C514.942 518.481 509.852 517.949 505.047 517.212C497.829 516.106 490.775 514.343 486.332 508.016C474.979 491.852 479.938 461.402 483.501 442.875C477.39 436.15 470.632 430.362 464.852 423.248C479.449 419.672 489.087 418.795 503.008 411.609C518.093 403.822 528.238 388.798 546.057 386.691Z" fill="#F2EEE6"/>
<path d="M573.114 470.51C574.761 470.445 576.292 470.423 577.809 471.173C579.601 472.058 580.849 473.405 581.355 475.361C582.08 478.157 581.197 480.354 579.79 482.727C579.504 481.046 579.112 479.494 578.574 477.876C577.436 476.201 576.345 474.361 574.202 473.899C571.309 473.276 567.914 475.724 565.554 477.129C567.863 474.228 569.715 472.2 573.114 470.51Z" fill="#2A0704"/>
<path d="M538.954 394.559C543.545 394.724 547.377 395.848 550.994 398.789C551.463 399.169 551.913 399.571 552.343 399.995C552.772 400.419 553.18 400.864 553.565 401.329C553.95 401.794 554.312 402.277 554.649 402.778C554.986 403.279 555.298 403.796 555.583 404.328C555.869 404.86 556.128 405.405 556.359 405.963C556.59 406.52 556.793 407.088 556.968 407.667C557.143 408.245 557.288 408.83 557.405 409.422C557.521 410.014 557.608 410.611 557.665 411.213C558.058 415.233 557.146 418.791 554.631 421.926L552.701 421.742C548.466 418.431 551.207 410.294 548.603 405.628C546.232 401.376 540.001 400.597 537.432 396.83C537.682 395.485 537.901 395.47 538.954 394.559Z" fill="#2A0704"/>
<path d="M527.557 465.553C527.839 465.525 528.122 465.495 528.404 465.47C530.079 465.326 531.197 465.489 532.498 466.578C532.272 467.686 532.008 468.198 531.097 468.916C523.178 475.167 506.797 476.039 497.11 474.845C496.038 474.628 494.732 474.261 493.814 473.645C492.691 472.893 491.931 471.867 491.63 470.556C492.319 469.255 493.134 468.671 494.63 468.482C496.764 468.211 499.945 469.504 502.222 469.655C511.27 470.252 519.052 468.36 527.557 465.553Z" fill="#2A0704"/>
<path d="M531.35 410.527C533.082 410.528 534.701 410.716 536.263 411.53C538.744 412.822 540.323 414.835 541.045 417.53C543.005 424.844 539.268 434.778 535.432 440.97C531.897 446.676 527.553 451.008 520.83 452.53C519.287 452.508 517.562 452.217 516.158 451.556C513.667 450.382 511.784 448.397 510.923 445.769C508.97 439.813 511.403 431.833 514.078 426.393C517.794 418.837 523.282 413.274 531.35 410.527Z" fill="#2A0704"/>
<path d="M523.229 421.381C523.677 421.968 523.506 421.68 523.83 422.385C526.131 427.405 528.817 432.012 532.03 436.502C529.896 440.586 527.567 443.45 523.858 446.129C523.248 446.302 522.635 446.492 522.002 446.57C520.39 446.768 518.351 446.373 517.182 445.185C516.089 444.075 515.713 442.436 515.602 440.938C515.079 433.877 518.616 426.545 523.229 421.381Z" fill="#F2EEE6"/>
<path d="M311.358 564.48C313.836 567.191 316.24 576.722 317.785 580.617L341.758 640.893C345.491 650.105 348.791 660.025 353.425 668.776C354.927 671.612 356.749 674.386 359.406 676.248C365.784 676.19 443.18 612.239 456.442 603.223C451.112 614.845 443.948 625.345 438.064 636.677C425.496 660.879 414.384 685.328 404.257 710.626C401.138 718.113 398.605 725.882 395.91 733.531C391.728 736.426 387.302 738.995 383.071 741.826L348.079 765.704C341.262 770.416 333.962 774.86 327.893 780.514C304.053 733.141 287.934 678.629 270.685 628.478C267.723 619.867 256.89 592.223 256.538 584.902C256.77 584.685 256.952 584.396 257.235 584.252C258.465 583.626 262.39 583.677 263.88 583.493C269.305 582.822 274.717 581.905 279.985 580.426C291.018 577.328 301.734 570.597 311.358 564.48Z" fill="#5E5E5E"/>
<path d="M591.189 586.168C592.57 585.99 593.679 585.99 594.94 586.676C601.493 590.241 609.091 603.367 612.954 609.985C630.631 640.262 644.449 673.114 659.443 704.775C670.096 727.273 680.428 749.788 690.654 772.484C697.801 788.346 705.298 803.952 710.918 820.452C678.621 835.486 644.501 845.907 610.483 856.251L556.486 872.957C553.894 863.233 549.055 854.328 545.21 845.068C541.177 835.357 537.726 825.271 533.148 815.809C553.817 807.077 575.966 801.027 597.398 794.369C604.859 792.051 612.461 790.019 619.748 787.2C619.8 786.889 619.832 786.745 619.804 786.354C619.423 780.953 582.169 709.341 576.629 699.904C575.331 697.693 574.065 695.405 572.103 693.715L571.416 693.852C571.028 695.759 571.61 697.482 572.321 699.243C577.293 711.56 585.739 725.064 591.919 737.098C600.028 752.887 607.104 769.648 616.409 784.746C603.769 788.236 591.163 791.846 578.592 795.574C556.276 802.107 533.821 808.606 513.514 820.148C512.642 818.721 511.81 817.271 511.017 815.798C510.224 814.326 509.472 812.833 508.76 811.319C508.048 809.806 507.378 808.274 506.75 806.724C506.121 805.174 505.535 803.608 504.992 802.026C504.449 800.445 503.949 798.85 503.492 797.24C503.035 795.632 502.622 794.012 502.254 792.38C501.885 790.749 501.561 789.109 501.281 787.459C501.002 785.811 500.767 784.155 500.578 782.493C494.744 730.458 517.873 651.235 550.856 610.332C561.343 597.327 574.312 588.043 591.189 586.168Z" fill="#5E5E5E"/>
<path d="M479.32 593.961C462.576 615.158 447.812 644.866 437.392 669.868C436.281 672.534 432.893 679.175 433.438 681.855C433.501 682.166 433.629 682.459 433.725 682.761C438.299 684.368 485.535 690.037 490.694 689.319C492.136 688.603 493.032 686.113 493.658 684.651C496.126 678.88 498.087 672.872 500.409 667.038C507.794 648.486 516.206 628.164 527.901 611.83C530.775 607.816 534.57 604.329 537.939 600.73C550.323 587.499 555.823 581.643 573.155 574.702C578.499 572.561 591.622 566.209 597.386 568.886C598.427 569.37 599.2 569.946 599.518 571.109C599.836 572.267 599.555 573.73 598.777 574.651C597.796 575.815 596.413 576.467 594.906 576.407C592.661 576.316 590.381 575.708 588.137 575.899C578.024 576.764 566.461 584.824 559.05 591.298C527.432 618.918 512.148 665.016 502.742 704.612C498.396 722.904 494.82 741.874 493.626 760.66C492.449 779.167 493.295 800.293 502.73 816.698C486.755 811.231 470.798 805.104 454.5 800.692C444.179 804.223 413.245 821.734 408.889 831.284C408.277 832.627 408.297 834.017 408.81 835.379C410.448 839.721 416.552 841.945 420.544 843.558L421.478 843.927C420.388 846.378 419.504 848.628 418.909 851.258C420.572 858.756 424.077 861.079 430.328 865.065L431.516 865.819C431.689 870.273 432.051 874.49 435.482 877.763C436.554 878.785 437.762 879.571 439.061 880.267C440.313 885.694 442.054 890.164 447.015 893.305C453.636 897.499 462.596 896.671 469.873 894.831C474.119 893.757 478.279 892.243 482.403 890.781C502.276 895.043 521.632 892.594 540.501 885.415C545.447 883.533 550.167 881.088 555.114 879.227C559.949 877.409 565.065 876.186 569.995 874.618C577.629 872.191 585.198 869.474 592.884 867.224C579.595 879.216 566.933 891.841 553.289 903.454C534.771 919.214 514.995 933.485 495.37 947.815C486.817 954.06 452.73 976.722 448.213 984.181L448.48 983.749L449.562 984.63C460.964 979.644 471.627 970.887 481.811 963.795C518.823 938.021 554.91 911.583 587.299 880.053C576.377 905.328 555.353 937.418 538.374 958.855C533.32 965.147 528.1 971.298 522.713 977.308C518.654 981.851 505.299 994.32 503.443 999.015L503.826 999.407C508.8 998.062 513.36 993.441 517.065 990.023C540.366 968.526 561.325 939.306 577.085 911.901C582.89 901.888 588.225 891.631 593.091 881.13C594.347 878.419 598.318 867.542 599.265 866.233C599.552 865.836 600.049 865.646 600.44 865.352L601.567 865.332C602.913 867.983 601.771 874.992 601.564 878.174C599.234 913.983 591.398 950.157 580.251 984.217C575.82 997.755 570.171 1010.66 565.3 1024H368.207C367.546 1003.5 367.524 982.991 368.139 962.486C368.898 925.965 371.014 889.099 376.062 852.9C377.197 844.986 378.467 837.093 379.871 829.223C381.274 821.351 382.811 813.506 384.481 805.688C386.151 797.869 387.953 790.081 389.888 782.324C391.823 774.566 393.888 766.843 396.085 759.156C398.282 751.468 400.608 743.821 403.065 736.213C405.521 728.604 408.106 721.039 410.819 713.519C413.532 705.998 416.373 698.526 419.34 691.102C422.307 683.678 425.4 676.306 428.617 668.987C440.317 642.888 453.708 616.704 469.979 593.123C473.446 594.82 475.656 594.504 479.32 593.961Z" fill="#F2EEE6"/>
<g filter="url(#filter0_d_2050_75)">
<path d="M293.463 285V180H328.863V285H293.463ZM354.904 285V180H405.454C415.254 180 423.704 181.6 430.804 184.8C438.004 188 443.554 192.6 447.454 198.6C451.354 204.5 453.305 211.5 453.305 219.6C453.305 227.7 451.354 234.7 447.454 240.6C443.554 246.4 438.004 250.85 430.804 253.95C423.704 257.05 415.254 258.6 405.454 258.6H374.554L390.304 244.05V285H354.904ZM417.754 285L391.954 246.75H429.454L455.554 285H417.754ZM390.304 247.95L374.554 231.9H403.204C408.104 231.9 411.704 230.8 414.004 228.6C416.404 226.4 417.604 223.4 417.604 219.6C417.604 215.8 416.404 212.8 414.004 210.6C411.704 208.4 408.104 207.3 403.204 207.3H374.554L390.304 191.25V247.95ZM475.672 285V180H504.772L546.772 248.55H531.472L572.272 180H601.372L601.672 285H569.422L569.122 228.6H574.222L546.322 275.55H530.722L501.622 228.6H507.922V285H475.672ZM616.387 285L662.287 180H697.087L742.987 285H706.387L672.487 196.8H686.287L652.387 285H616.387ZM643.687 266.7L652.687 241.2H700.987L709.987 266.7H643.687Z" fill="#F2EEE6"/>
</g>
<path d="M161.553 739C161.699 739.16 161.921 739.275 161.992 739.48C162.636 741.341 161.965 763.433 161.971 767.383C162.038 810.428 161.575 853.526 162.097 896.563C154.183 889.707 146.641 882.67 139.293 875.212C138.067 873.996 137.598 872.875 137.224 871.216C134.238 857.979 132.795 842.764 130.829 829.196C126.839 801.666 122.915 773.986 118 746.611C132.448 743.778 146.933 740.808 161.553 739Z" fill="#F2EEE6"/>
</g>
<defs>
<filter id="filter0_d_2050_75" x="293.463" y="180" width="459.524" height="113" filterUnits="userSpaceOnUse" color-interpolation-filters="sRGB">
<feFlood flood-opacity="0" result="BackgroundImageFix"/>
<feColorMatrix in="SourceAlpha" type="matrix" values="0 0 0 0 0 0 0 0 0 0 0 0 0 0 0 0 0 0 127 0" result="hardAlpha"/>
<feOffset dx="10" dy="8"/>
<feComposite in2="hardAlpha" operator="out"/>
<feColorMatrix type="matrix" values="0 0 0 0 0 0 0 0 0 0 0 0 0 0 0 0 0 0 0.25 0"/>
<feBlend mode="normal" in2="BackgroundImageFix" result="effect1_dropShadow_2050_75"/>
<feBlend mode="normal" in="SourceGraphic" in2="effect1_dropShadow_2050_75" result="shape"/>
</filter>
<clipPath id="clip0_2050_75">
<rect width="1024" height="1024" rx="250" fill="white"/>
</clipPath>
</defs>
</svg>
